<svg width="20" height="14" viewBox="0 0 20 14" fill="none" xmlns="http://www.w3.org/2000/svg">
<path fill-rule="evenodd" clip-rule="evenodd" d="M14.8018 0.0328291C14.2522 0.12197 13.5517 0.384135 13.1135 0.664697C12.9136 0.792691 12.8919 0.818973 12.9643 0.84473C14.497 1.39017 15.8265 2.48934 16.698 3.93162C16.9584 4.36251 17.1157 4.70383 17.3293 5.30136L17.4829 5.73098L17.8665 5.86279C18.3293 6.02175 18.7609 6.26075 19.1656 6.58205C19.3311 6.71341 19.4741 6.82095 19.4833 6.82095C19.4925 6.82095 19.558 6.67771 19.629 6.50263C20.2363 5.00367 20.0934 3.39831 19.2345 2.07211C18.6267 1.13344 17.6473 0.418126 16.5866 0.138089C16.1087 0.0119348 15.2448 -0.0390089 14.8018 0.0328291ZM10.0648 1.41948C8.11135 1.67989 6.42233 2.76977 5.46224 4.38945L5.28779 4.68368L4.52151 4.69323C3.88658 4.70116 3.70036 4.71886 3.43544 4.79635C2.09192 5.18944 1.06213 6.05285 0.472093 7.28089C0.199329 7.84863 0.087333 8.24273 0.0222756 8.86338C-0.03579 9.41741 0.0210819 10.0633 0.176307 10.6138C0.624675 12.2034 1.83489 13.414 3.42666 13.8652L3.84045 13.9825L10.2664 13.9947C16.5315 14.0066 16.7028 14.0048 17.109 13.92C17.8903 13.757 18.6742 13.2623 19.1975 12.6019C19.4786 12.2471 19.7776 11.6374 19.895 11.1794C20.0144 10.7137 20.0247 9.95874 19.9181 9.47935C19.5866 7.98823 18.4458 6.8581 16.9994 6.58778L16.7235 6.53623L16.6067 6.07629C15.9797 3.60747 13.9171 1.76583 11.4077 1.43424C11.0978 1.39328 10.325 1.38479 10.0648 1.41948Z" fill="black"/>
</svg>
