<svg width="30" height="23" viewBox="0 0 30 23" fill="none" xmlns="http://www.w3.org/2000/svg">
<path fill-rule="evenodd" clip-rule="evenodd" d="M3.89633 0.0422147C3.37858 0.106191 2.75808 0.323306 2.24432 0.620132C1.73102 0.916776 0.973503 1.70175 0.657777 2.26423C0.350257 2.81202 0.124203 3.48045 0.20438 3.60498C0.25408 3.68213 14.7849 12.9311 14.977 13.0079C15.0557 13.0393 29.714 3.74245 29.8014 3.60566C29.8427 3.54095 29.82 3.39397 29.7237 3.10269C29.5058 2.44366 29.1567 1.88568 28.6059 1.31643C28.1879 0.884391 28.007 0.747474 27.5452 0.513526C26.4553 -0.0385941 27.6532 0.0114159 15.2666 0.00086501C9.2387 -0.00431893 4.12209 0.0143433 3.89633 0.0422147ZM1.05694e-05 12.6743C0.00112414 19.2842 -0.00204074 19.2046 0.294344 20.0341C0.790233 21.4216 2.02934 22.5439 3.44838 22.8905C3.87118 22.9938 4.52455 23 15.0029 23C25.4812 23 26.1346 22.9938 26.5574 22.8905C28.0168 22.534 29.2544 21.3871 29.7398 19.9414C30.0086 19.1408 30.0113 19.0623 29.994 12.6196L29.9774 6.50824L23.003 10.9314C19.167 13.3641 15.9033 15.4216 15.7504 15.5037C15.354 15.7162 14.8799 15.7549 14.4754 15.6078C14.2956 15.5424 11.0431 13.5136 7.11999 11.0199C3.2518 8.56089 0.0671763 6.53708 0.0429708 6.52239C0.0187654 6.50769 -0.00051691 9.27603 1.05694e-05 12.6743Z" fill="#BCC1CB"/>
</svg>
