<svg width="20" height="20" viewBox="0 0 20 20" fill="none" xmlns="http://www.w3.org/2000/svg">
<path fill-rule="evenodd" clip-rule="evenodd" d="M8.84462 0.31304C7.77337 0.439715 6.55697 0.796231 5.56561 1.27412C3.56662 2.23774 2.01758 3.7474 1.02111 5.70312C0.50498 6.7161 0.170152 7.8364 0.033848 9.00623C-0.0328649 9.57905 0.00424149 11.0178 0.0996453 11.5568C0.476115 13.6841 1.43678 15.4749 3.00706 16.9767C3.97667 17.904 5.19346 18.6665 6.44605 19.1317C6.96902 19.326 7.22798 19.3326 7.40907 19.1563L7.53652 19.0323V18.0933V17.1543L7.264 17.1882C7.11414 17.2069 6.74621 17.2207 6.44644 17.2188C5.97391 17.2159 5.85597 17.2003 5.56007 17.1013C4.82628 16.8559 4.4751 16.5237 4.03588 15.6596C3.77997 15.1561 3.69822 15.037 3.42557 14.771C3.25246 14.602 3.01426 14.3969 2.89631 14.3152C2.63133 14.1317 2.57064 14.0453 2.63561 13.9439C2.71754 13.8161 3.045 13.7818 3.36901 13.8672C3.87669 14.0009 4.26266 14.2985 4.6288 14.8386C4.75804 15.0292 4.9532 15.2651 5.06252 15.3629C5.6025 15.8456 6.3213 15.9595 7.17217 15.697L7.52723 15.5875L7.59582 15.292C7.6808 14.9257 7.79679 14.7003 8.02313 14.4613C8.22488 14.2483 8.27516 14.2826 7.5963 14.1696C7.02375 14.0742 6.48451 13.9132 6.01686 13.6979C4.78132 13.1292 4.09584 12.2347 3.78093 10.7804C3.64101 10.1341 3.63931 9.01217 3.77749 8.48009C3.89801 8.016 4.18749 7.42205 4.45905 7.0817C4.56971 6.94297 4.65125 6.80942 4.64026 6.78485C4.50226 6.47608 4.46289 6.23563 4.46271 5.70045C4.46249 5.13018 4.53091 4.72134 4.68818 4.35307C4.74509 4.21981 4.75568 4.21515 5.00112 4.21515C5.52585 4.21515 6.42037 4.54166 7.14435 4.99748L7.46039 5.19647L8.03259 5.0874C8.80633 4.93997 9.27254 4.89482 10.0219 4.89482C10.7714 4.89482 11.2375 4.93997 12.0116 5.08749L12.5842 5.19659L12.825 5.04666C13.548 4.59653 14.417 4.26195 14.9569 4.22584L15.2917 4.20343L15.3531 4.34721C15.6458 5.03236 15.6701 6.19429 15.4042 6.78281C15.3936 6.80628 15.4742 6.93041 15.5834 7.05866C15.8359 7.3555 16.1436 7.95828 16.2656 8.39522C16.3486 8.69224 16.3599 8.83826 16.3569 9.56224C16.3539 10.2729 16.3382 10.4586 16.2459 10.8778C15.8328 12.7542 14.6745 13.7815 12.5585 14.1485C12.2785 14.197 12.0042 14.2455 11.9488 14.2562L11.8482 14.2756L11.9758 14.4333C12.1462 14.6439 12.3089 14.9643 12.4018 15.2723C12.4671 15.4888 12.4801 15.7598 12.4933 17.1797C12.5017 18.09 12.519 18.8794 12.5316 18.9339C12.57 19.1004 12.76 19.2379 12.9516 19.2379C13.3333 19.2379 14.6803 18.639 15.5188 18.0965C16.1638 17.6791 16.5965 17.3274 17.1762 16.7495C18.6616 15.2683 19.602 13.3967 19.8978 11.333C20.3344 8.28666 19.3607 5.34682 17.2041 3.19971C15.6933 1.6956 13.8072 0.737921 11.6352 0.372154C11.1492 0.290335 9.35778 0.252354 8.84462 0.31304Z" fill="black"/>
</svg>
