<svg width="30" height="26" viewBox="0 0 30 26" fill="none" xmlns="http://www.w3.org/2000/svg">
<path fill-rule="evenodd" clip-rule="evenodd" d="M27.9794 0.141237C25.9825 0.905615 1.37144 10.7437 1.00894 10.9226C-0.195588 11.5166 -0.336407 12.3012 0.666343 12.832C0.763156 12.8832 2.42899 13.4375 4.36819 14.0638L7.89406 15.2024L15.9002 9.99114C20.3036 7.12491 23.995 4.74765 24.1034 4.70839C24.3753 4.60973 24.6093 4.61895 24.7186 4.73263C24.795 4.81218 24.7982 4.85211 24.7374 4.96902C24.6972 5.04638 21.7731 7.80949 18.2394 11.1093C14.7057 14.409 11.805 17.1346 11.7933 17.1663C11.7817 17.1978 11.6622 18.8453 11.5277 20.8272L11.2833 24.4308L11.5489 24.3935C11.695 24.373 11.9264 24.2945 12.063 24.2191C12.1997 24.1438 13.1197 23.2767 14.1075 22.2922C15.0952 21.3078 15.9376 20.4887 15.9794 20.472C16.0212 20.4553 17.5942 21.6147 19.475 23.0484C21.3557 24.4821 23.0419 25.726 23.2219 25.8126C23.6944 26.0398 24.2266 26.0623 24.5723 25.8699C24.881 25.6979 25.1828 25.2709 25.3097 24.8263C25.3588 24.6542 26.434 19.4849 27.6991 13.3388C29.8054 3.10607 29.9993 2.11537 30 1.58427C30.0007 1.08248 29.9806 0.963126 29.8514 0.699013C29.7603 0.512803 29.6049 0.322686 29.4531 0.21157C29.1059 -0.0425305 28.5311 -0.0699431 27.9794 0.141237Z" fill="#BCC1CB"/>
</svg>
