<svg width="27" height="27" viewBox="0 0 27 27" fill="none" xmlns="http://www.w3.org/2000/svg">
<path fill-rule="evenodd" clip-rule="evenodd" d="M11.9402 0.0423993C10.4941 0.222411 8.85192 0.729039 7.51358 1.40814C4.81494 2.7775 2.72373 4.92281 1.3785 7.70199C0.681724 9.14149 0.229705 10.7335 0.0456947 12.3959C-0.0443677 13.2099 0.00572601 15.2544 0.134521 16.0204C0.642756 19.0434 1.93965 21.5883 4.05954 23.7224C5.3685 25.04 7.01117 26.1236 8.70216 26.7847C9.40818 27.0608 9.75778 27.0702 10.0022 26.8197L10.1743 26.6434V25.3091V23.9747L9.8064 24.0229C9.60408 24.0495 9.10739 24.0691 8.70269 24.0664C8.06478 24.0623 7.90555 24.0401 7.5061 23.8994C6.51547 23.5506 6.04138 23.0785 5.44844 21.8507C5.10296 21.1351 4.99259 20.966 4.62451 20.5879C4.39082 20.3478 4.06925 20.0563 3.91002 19.9402C3.5523 19.6795 3.47036 19.5566 3.55807 19.4126C3.66868 19.2309 4.11075 19.1822 4.54817 19.3035C5.23353 19.4935 5.75459 19.9165 6.24888 20.6839C6.42335 20.9549 6.68683 21.2901 6.8344 21.429C7.56337 22.115 8.53375 22.2768 9.68243 21.9038L10.1618 21.7482L10.2544 21.3282C10.3691 20.8078 10.5257 20.4874 10.8312 20.1478C11.1036 19.8451 11.1715 19.8939 10.255 19.7333C9.48206 19.5977 8.75408 19.3689 8.12276 19.063C6.45478 18.2548 5.52938 16.9837 5.10426 14.9171C4.91536 13.9986 4.91307 12.4043 5.09961 11.6482C5.26231 10.9887 5.65311 10.1447 6.01972 9.66102C6.16911 9.46388 6.27919 9.2741 6.26436 9.23918C6.07805 8.8004 6.0249 8.45871 6.02466 7.69819C6.02437 6.88781 6.11673 6.30682 6.32905 5.78349C6.40587 5.59413 6.42017 5.5875 6.75152 5.5875C7.45989 5.5875 8.66749 6.05149 9.64488 6.69923L10.0715 6.982L10.844 6.82702C11.8885 6.61752 12.5179 6.55335 13.5296 6.55335C14.5413 6.55335 15.1706 6.61752 16.2156 6.82714L16.9886 6.98219L17.3137 6.76913C18.2897 6.12946 19.4629 5.65402 20.1918 5.60269L20.6438 5.57085L20.7267 5.77517C21.1218 6.7488 21.1547 8.39997 20.7957 9.23629C20.7814 9.26964 20.8902 9.44603 21.0375 9.62827C21.3785 10.0501 21.7939 10.9067 21.9586 11.5276C22.0705 11.9497 22.0859 12.1572 22.0818 13.186C22.0777 14.1959 22.0566 14.4598 21.932 15.0555C21.3742 17.7219 19.8106 19.1818 16.9539 19.7033C16.576 19.7723 16.2057 19.8411 16.1309 19.8563L15.9951 19.884L16.1674 20.1081C16.3974 20.4073 16.617 20.8627 16.7424 21.3004C16.8306 21.608 16.8481 21.993 16.8659 24.0109C16.8774 25.3044 16.9006 26.4262 16.9176 26.5036C16.9695 26.7402 17.226 26.9357 17.4847 26.9357C18 26.9357 19.8184 26.0846 20.9504 25.3136C21.8212 24.7205 22.4053 24.2207 23.1879 23.3994C25.1932 21.2946 26.4628 18.635 26.862 15.7024C27.4514 11.3733 26.1369 7.19567 23.2255 4.14451C21.186 2.0071 18.6398 0.646178 15.7075 0.126404C15.0514 0.0101352 12.633 -0.0438377 11.9402 0.0423993Z" fill="#BCC1CB"/>
</svg>
