<svg width="34" height="10" viewBox="0 0 34 10" fill="none" xmlns="http://www.w3.org/2000/svg">
<path fill-rule="evenodd" clip-rule="evenodd" d="M0 4.50063C0 4.36802 0.052678 4.24085 0.146446 4.14708C0.240214 4.05331 0.367392 4.00063 0.5 4.00063H32.293L29.146 0.854632C29.0521 0.760745 28.9994 0.633407 28.9994 0.500632C28.9994 0.367856 29.0521 0.240518 29.146 0.146631C29.2399 0.0527448 29.3672 3.1283e-09 29.5 0C29.6328 -3.1283e-09 29.7601 0.0527449 29.854 0.146631L33.854 4.14663C33.9006 4.19308 33.9375 4.24825 33.9627 4.309C33.9879 4.36974 34.0009 4.43486 34.0009 4.50063C34.0009 4.5664 33.9879 4.63152 33.9627 4.69226C33.9375 4.75301 33.9006 4.80819 33.854 4.85463L29.854 8.85463C29.7601 8.94852 29.6328 9.00126 29.5 9.00126C29.3672 9.00126 29.2399 8.94852 29.146 8.85463C29.0521 8.76075 28.9994 8.63341 28.9994 8.50063C28.9994 8.36786 29.0521 8.24052 29.146 8.14663L32.293 5.00063H0.5C0.367392 5.00063 0.240214 4.94795 0.146446 4.85419C0.052678 4.76042 0 4.63324 0 4.50063Z" fill="black"/>
</svg>
