<svg width="39" height="39" viewBox="0 0 39 39" fill="none" xmlns="http://www.w3.org/2000/svg">
<path d="M30.492 26.8299C34.757 20.5423 33.1174 11.9876 26.8298 7.72259C20.5422 3.45755 11.9876 5.09717 7.72254 11.3848C3.4575 17.6724 5.0971 26.227 11.3847 30.4921C17.6723 34.7571 26.227 33.1175 30.492 26.8299Z" fill="url(#paint0_radial_12_173)"/>
<path style="mix-blend-mode:overlay" opacity="0.6" d="M21.5972 5.61753C29.0526 6.99091 33.9922 14.1463 32.6188 21.6133C31.2454 29.0687 24.09 34.0083 16.623 32.6349C9.16758 31.2615 4.22805 24.1061 5.60142 16.6391C6.97479 9.18367 14.1302 4.24416 21.5972 5.61753Z" fill="url(#paint1_radial_12_173)"/>
<defs>
<radialGradient id="paint0_radial_12_173" cx="0" cy="0" r="1" gradientUnits="userSpaceOnUse" gradientTransform="translate(12.1679 14.1678) rotate(-19.29) scale(26.2787)">
<stop stop-color="#F4EEF7"/>
<stop offset="0.28" stop-color="#ECEAF3"/>
<stop offset="0.54" stop-color="#E0E4EE"/>
<stop offset="1" stop-color="#BCC1CB"/>
</radialGradient>
<radialGradient id="paint1_radial_12_173" cx="0" cy="0" r="1" gradientUnits="userSpaceOnUse" gradientTransform="translate(22.2173 19.2177) rotate(-79.58) scale(19.008)">
<stop offset="0.54" stop-color="white" stop-opacity="0"/>
<stop offset="0.58" stop-color="white" stop-opacity="0.05"/>
<stop offset="0.66" stop-color="white" stop-opacity="0.18"/>
<stop offset="0.76" stop-color="white" stop-opacity="0.39"/>
<stop offset="0.88" stop-color="white" stop-opacity="0.67"/>
<stop offset="1" stop-color="white"/>
</radialGradient>
</defs>
</svg>
