<svg width="18" height="17" viewBox="0 0 18 17" fill="none" xmlns="http://www.w3.org/2000/svg">
<path d="M17.4043 9.21796C17.012 13.7882 12.9957 17.1697 8.42549 16.7773C3.85527 16.3849 0.473786 12.3686 0.866178 7.79843C1.25857 3.22821 5.27482 -0.15329 9.84504 0.239103C14.4153 0.631495 17.7967 4.64774 17.4043 9.21796Z" fill="url(#paint0_radial_12_167)"/>
<path style="mix-blend-mode:overlay" opacity="0.6" d="M13.8497 1.68174C17.6121 4.27845 18.5584 9.44881 15.9617 13.2112C13.365 16.9735 8.19465 17.9199 4.4323 15.3232C0.669948 12.7264 -0.27643 7.55609 2.32028 3.79374C4.917 0.031386 10.0874 -0.914974 13.8497 1.68174Z" fill="url(#paint1_radial_12_167)"/>
<defs>
<radialGradient id="paint0_radial_12_167" cx="0" cy="0" r="1" gradientUnits="userSpaceOnUse" gradientTransform="translate(6.60992 4.01873) rotate(4.91) scale(15.8573)">
<stop stop-color="#F4EEF7"/>
<stop offset="0.28" stop-color="#ECEAF3"/>
<stop offset="0.54" stop-color="#E0E4EE"/>
<stop offset="1" stop-color="#BCC1CB"/>
</radialGradient>
<radialGradient id="paint1_radial_12_167" cx="0" cy="0" r="1" gradientUnits="userSpaceOnUse" gradientTransform="translate(10.7567 9.25634) rotate(-55.38) scale(11.4717)">
<stop offset="0.54" stop-color="white" stop-opacity="0"/>
<stop offset="0.58" stop-color="white" stop-opacity="0.05"/>
<stop offset="0.66" stop-color="white" stop-opacity="0.18"/>
<stop offset="0.76" stop-color="white" stop-opacity="0.39"/>
<stop offset="0.88" stop-color="white" stop-opacity="0.67"/>
<stop offset="1" stop-color="white"/>
</radialGradient>
</defs>
</svg>
