<svg width="146" height="145" viewBox="0 0 146 145" fill="none" xmlns="http://www.w3.org/2000/svg">
<path d="M130.35 56.8729C133.885 37.2643 120.855 18.5024 101.247 14.9672C81.6381 11.432 62.8763 24.4621 59.341 44.0708C55.8058 63.6794 68.8359 82.4412 88.4445 85.9765C108.053 89.5117 126.815 76.4816 130.35 56.8729Z" fill="url(#paint0_radial_12_176)"/>
<path style="mix-blend-mode:overlay" opacity="0.6" d="M116.626 79.1789C132.488 67.1737 135.615 44.5829 123.609 28.7208C111.604 12.8588 89.0135 9.73208 73.1514 21.7372C57.2893 33.7423 54.1626 56.3331 66.1677 72.1952C78.1728 88.0573 100.764 91.184 116.626 79.1789Z" fill="url(#paint1_radial_12_176)"/>
<path opacity="0.2" d="M83.7167 126.722C93.102 116.762 85.7737 94.6132 67.3486 77.2502C48.9235 59.8873 26.3788 53.8855 16.9935 63.8449C7.60827 73.8043 14.9365 95.9534 33.3616 113.316C51.7867 130.679 74.3315 136.681 83.7167 126.722Z" fill="url(#paint2_radial_12_176)"/>
<defs>
<radialGradient id="paint0_radial_12_176" cx="0" cy="0" r="1" gradientUnits="userSpaceOnUse" gradientTransform="translate(104.3 30.1243) rotate(59.44) scale(68.911)">
<stop stop-color="#F4EEF7"/>
<stop offset="0.28" stop-color="#ECEAF3"/>
<stop offset="0.54" stop-color="#E0E4EE"/>
<stop offset="1" stop-color="#BCC1CB"/>
</radialGradient>
<radialGradient id="paint1_radial_12_176" cx="0" cy="0" r="1" gradientUnits="userSpaceOnUse" gradientTransform="translate(96.2044 58.3269) rotate(-0.850026) scale(49.8569)">
<stop offset="0.54" stop-color="white" stop-opacity="0"/>
<stop offset="0.58" stop-color="white" stop-opacity="0.05"/>
<stop offset="0.66" stop-color="white" stop-opacity="0.18"/>
<stop offset="0.76" stop-color="white" stop-opacity="0.39"/>
<stop offset="0.88" stop-color="white" stop-opacity="0.67"/>
<stop offset="1" stop-color="white"/>
</radialGradient>
<radialGradient id="paint2_radial_12_176" cx="0" cy="0" r="1" gradientUnits="userSpaceOnUse" gradientTransform="translate(53.1122 96.3883) rotate(43.3) scale(45.3968 25.4665)">
<stop stop-color="#98969C"/>
<stop offset="0.43" stop-color="#CAC9CC" stop-opacity="0.56"/>
<stop offset="0.8" stop-color="#F0F0F0" stop-opacity="0.23"/>
<stop offset="0.98" stop-color="white" stop-opacity="0.1"/>
</radialGradient>
</defs>
</svg>
