<svg width="218" height="257" viewBox="0 0 218 257" fill="none" xmlns="http://www.w3.org/2000/svg">
<path style="mix-blend-mode:multiply" opacity="0.58" d="M142.206 205.977C183.859 177.934 202.676 132.994 184.233 105.6C165.791 78.2069 117.074 78.7331 75.4201 106.776C33.7667 134.819 14.9505 179.758 33.3929 207.152C51.8353 234.546 100.553 234.019 142.206 205.977Z" fill="url(#paint0_radial_12_202)"/>
<path d="M116.3 139.398C148.293 135.634 171.177 106.647 167.413 74.6538C163.649 42.6608 134.662 19.7767 102.669 23.5407C70.6763 27.3047 47.7921 56.2914 51.5561 88.2844C55.3201 120.277 84.3068 143.162 116.3 139.398Z" fill="url(#paint1_radial_12_202)"/>
<path style="mix-blend-mode:overlay" opacity="0.6" d="M144.165 128.239C169.996 109.076 175.401 72.6016 156.239 46.7709C137.076 20.9401 100.602 15.5345 74.7708 34.6971C48.94 53.8598 43.5344 90.3342 62.6971 116.165C81.8597 141.996 118.334 147.401 144.165 128.239Z" fill="url(#paint2_radial_12_202)"/>
<g style="mix-blend-mode:multiply" opacity="0.2">
<g style="mix-blend-mode:multiply" opacity="0.2">
<path style="mix-blend-mode:multiply" opacity="0.2" d="M85.7703 131.296C80.1383 128.029 78.3726 123.632 81.8118 121.474C85.251 119.316 92.6141 120.216 98.2346 123.482C103.855 126.748 105.632 131.145 102.193 133.304C98.7539 135.462 91.3908 134.562 85.7703 131.296C87.513 130.742 89.4634 129.807 91.5985 128.468C89.4634 129.807 87.513 130.742 85.7703 131.296Z" fill="url(#paint3_radial_12_202)"/>
<path style="mix-blend-mode:multiply" opacity="0.2" d="M78.9265 131.088C77.9456 130.488 76.6414 129.692 75.6951 129.068C72.7175 126.956 72.6021 126.876 70.9979 125.548C68.0665 122.975 67.8357 122.767 66.0815 120.944L65.516 120.343C58.2682 112.473 57.5989 104.325 65.0543 99.662C75.4181 93.176 97.5421 95.8881 114.473 105.721C131.403 115.554 136.735 128.78 126.371 135.277C123.844 136.859 120.612 137.897 116.931 138.417C115.696 138.555 114.057 138.763 112.822 138.855C108.898 139.04 108.829 139.051 106.613 138.982C104.259 138.851 102.466 138.713 101.235 138.567C99.0963 138.259 97.4921 137.993 96.4226 137.77C94.4222 137.316 92.9334 136.947 91.9563 136.662C90.0328 136.062 88.6017 135.585 87.663 135.231C84.847 134.112 84.7894 134.089 83.3814 133.419C80.4846 131.977 80.4269 131.954 78.9381 131.088C79.2612 131.284 79.619 131.434 79.9883 131.561C92.3371 138.728 108.471 140.702 116.019 135.981C123.567 131.261 119.689 121.601 107.34 114.434C94.9915 107.268 78.8688 105.294 71.3095 110.014C63.7502 114.746 67.6395 124.394 79.9883 131.561C79.619 131.434 79.2728 131.273 78.9381 131.088" fill="url(#paint4_radial_12_202)"/>
<path style="mix-blend-mode:multiply" opacity="0.2" d="M51.99 94.6301C51.6322 92.7143 51.1706 90.1522 50.9282 88.2133C50.305 82.5813 52.6825 77.5495 58.4183 73.9487C73.2831 64.6351 105.044 68.5244 129.337 82.639C151.727 95.6457 159.979 112.784 149.499 122.686C148.115 123.898 146.28 125.525 144.837 126.668C143.452 127.649 141.617 128.976 140.186 129.899L137.22 131.642C137.612 131.434 137.993 131.215 138.351 130.984C151.6 122.686 144.791 105.779 123.14 93.2105C101.489 80.6424 73.2023 77.1686 59.9533 85.4666C53.3749 89.5867 51.7361 95.8419 54.4251 102.628C52.7632 97.8731 52.4632 97.019 51.9785 94.6532" fill="url(#paint5_radial_12_202)"/>
<path style="mix-blend-mode:multiply" opacity="0.2" d="M54.1942 62.5807C54.8405 61.0458 55.6599 58.98 56.3869 57.4796L57.2525 55.7831C75.9142 26.3537 158.305 55.887 165.818 86.1589C166.776 90.0366 166.222 92.8065 166.014 93.8567C165.426 96.0149 164.595 98.8886 163.868 101.012C163.002 103.066 161.825 105.79 160.821 107.787C166.557 96.9497 157.163 81.2078 135.985 68.9167C109.891 53.7635 75.7988 49.5856 59.8377 59.5801C55.4983 62.2922 52.9477 65.7776 52.0591 69.7015C52.6477 67.5434 53.4094 64.6581 54.2057 62.5692" fill="url(#paint6_radial_12_202)"/>
<path style="mix-blend-mode:multiply" opacity="0.2" d="M69.1397 40.3414C73.2945 36.7868 73.9293 36.2443 77.8532 33.6938L80.8077 31.9626C94.4837 24.5303 121.813 28.1426 142.863 40.3644C153.758 46.6889 160.89 54.1097 163.602 60.9881C165.391 66.1008 165.414 66.2046 166.049 68.9629C166.407 70.8787 166.869 73.4408 167.111 75.3682C166.107 66.4008 157.463 55.887 142.54 47.2313C118.247 33.1283 86.4974 29.2274 71.6211 38.541C70.4439 39.2796 69.4052 40.0759 68.505 40.93L69.1167 40.3529" fill="url(#paint7_radial_12_202)"/>
<path style="mix-blend-mode:multiply" opacity="0.2" d="M105.228 24.738C109.152 24.5533 109.222 24.5418 111.437 24.611C113.8 24.7418 115.592 24.8803 116.816 25.0265C118.954 25.3343 120.559 25.5997 121.628 25.8228C123.629 26.2768 125.117 26.6461 126.094 26.9308C128.922 27.8079 128.98 27.831 130.388 28.3618C133.204 29.4813 133.261 29.5044 134.669 30.1738C137.566 31.6164 137.624 31.6395 139.113 32.505C140.094 33.1052 141.398 33.9015 142.344 34.5247C145.322 36.6367 145.437 36.7175 147.041 38.0447C149.973 40.6183 150.204 40.8261 151.958 42.6495L152.5 43.2266C149.673 40.1567 145.83 37.133 141.075 34.3747C128.287 26.9423 112.522 23.5839 101.12 25.1881C102.343 25.0496 103.97 24.8303 105.205 24.7495" fill="url(#paint8_radial_12_202)"/>
</g>
</g>
<defs>
<radialGradient id="paint0_radial_12_202" cx="0" cy="0" r="1" gradientUnits="userSpaceOnUse" gradientTransform="translate(109.293 154.917) rotate(146.06) scale(81.0011 51.6731)">
<stop stop-color="#98969C"/>
<stop offset="0.14" stop-color="#9D9BA1" stop-opacity="0.95"/>
<stop offset="0.34" stop-color="#ADACB1" stop-opacity="0.81"/>
<stop offset="0.58" stop-color="#C8C7CA" stop-opacity="0.58"/>
<stop offset="0.86" stop-color="#ECECED" stop-opacity="0.26"/>
<stop offset="0.98" stop-color="white" stop-opacity="0.1"/>
</radialGradient>
<radialGradient id="paint1_radial_12_202" cx="0" cy="0" r="1" gradientUnits="userSpaceOnUse" gradientTransform="translate(87.6222 52.431) rotate(-2.48) scale(111.405)">
<stop stop-color="#F4EEF7"/>
<stop offset="0.28" stop-color="#ECEAF3"/>
<stop offset="0.54" stop-color="#E0E4EE"/>
<stop offset="1" stop-color="#BCC1CB"/>
</radialGradient>
<radialGradient id="paint2_radial_12_202" cx="0" cy="0" r="1" gradientUnits="userSpaceOnUse" gradientTransform="translate(121.609 85.8698) rotate(-62.77) scale(80.5904)">
<stop offset="0.54" stop-color="white" stop-opacity="0"/>
<stop offset="0.58" stop-color="white" stop-opacity="0.05"/>
<stop offset="0.66" stop-color="white" stop-opacity="0.18"/>
<stop offset="0.76" stop-color="white" stop-opacity="0.39"/>
<stop offset="0.88" stop-color="white" stop-opacity="0.67"/>
<stop offset="1" stop-color="white"/>
</radialGradient>
<radialGradient id="paint3_radial_12_202" cx="0" cy="0" r="1" gradientUnits="userSpaceOnUse" gradientTransform="translate(113.194 53.9746) rotate(-11.98) scale(81.9985 82.8184)">
<stop stop-color="#E4DCED"/>
<stop offset="0.2" stop-color="#DED6E7"/>
<stop offset="0.45" stop-color="#CFC7D7"/>
<stop offset="0.73" stop-color="#B6AFBD"/>
<stop offset="0.99" stop-color="#98929E"/>
</radialGradient>
<radialGradient id="paint4_radial_12_202" cx="0" cy="0" r="1" gradientUnits="userSpaceOnUse" gradientTransform="translate(113.197 53.9862) rotate(-11.98) scale(81.9869 82.8068)">
<stop stop-color="#E4DCED"/>
<stop offset="0.2" stop-color="#DED6E7"/>
<stop offset="0.45" stop-color="#CFC7D7"/>
<stop offset="0.73" stop-color="#B6AFBD"/>
<stop offset="0.99" stop-color="#98929E"/>
</radialGradient>
<radialGradient id="paint5_radial_12_202" cx="0" cy="0" r="1" gradientUnits="userSpaceOnUse" gradientTransform="translate(113.197 53.9861) rotate(-11.98) scale(81.9869 82.8068)">
<stop stop-color="#E4DCED"/>
<stop offset="0.2" stop-color="#DED6E7"/>
<stop offset="0.45" stop-color="#CFC7D7"/>
<stop offset="0.73" stop-color="#B6AFBD"/>
<stop offset="0.99" stop-color="#98929E"/>
</radialGradient>
<radialGradient id="paint6_radial_12_202" cx="0" cy="0" r="1" gradientUnits="userSpaceOnUse" gradientTransform="translate(113.197 53.986) rotate(-11.98) scale(81.9869 82.8068)">
<stop stop-color="#E4DCED"/>
<stop offset="0.2" stop-color="#DED6E7"/>
<stop offset="0.45" stop-color="#CFC7D7"/>
<stop offset="0.73" stop-color="#B6AFBD"/>
<stop offset="0.99" stop-color="#98929E"/>
</radialGradient>
<radialGradient id="paint7_radial_12_202" cx="0" cy="0" r="1" gradientUnits="userSpaceOnUse" gradientTransform="translate(113.197 53.9861) rotate(-11.98) scale(81.9869 82.8068)">
<stop stop-color="#E4DCED"/>
<stop offset="0.2" stop-color="#DED6E7"/>
<stop offset="0.45" stop-color="#CFC7D7"/>
<stop offset="0.73" stop-color="#B6AFBD"/>
<stop offset="0.99" stop-color="#98929E"/>
</radialGradient>
<radialGradient id="paint8_radial_12_202" cx="0" cy="0" r="1" gradientUnits="userSpaceOnUse" gradientTransform="translate(113.197 53.986) rotate(-11.98) scale(81.9869 82.8068)">
<stop stop-color="#E4DCED"/>
<stop offset="0.2" stop-color="#DED6E7"/>
<stop offset="0.45" stop-color="#CFC7D7"/>
<stop offset="0.73" stop-color="#B6AFBD"/>
<stop offset="0.99" stop-color="#98929E"/>
</radialGradient>
</defs>
</svg>
