<svg width="143" height="62" viewBox="0 0 143 62" fill="none" xmlns="http://www.w3.org/2000/svg">
<path style="mix-blend-mode:multiply" opacity="0.58" d="M41.4669 54.9559C51.5998 65.3889 81.7102 63 108.728 49.6125C135.745 36.2365 149.421 16.9285 139.288 6.49544C129.155 -3.93758 99.0447 -1.5486 72.0273 11.8389C45.0099 25.2149 31.3339 44.5229 41.4669 54.9559Z" fill="url(#paint0_radial_12_216)"/>
<path d="M2.86229 28.0305C2.9777 28.169 3.0931 28.296 3.20851 28.4345C3.28929 28.5268 3.37007 28.6191 3.45086 28.6999C3.58935 28.8384 3.72786 28.9538 3.86635 29.0808C3.9356 29.15 4.00484 29.2193 4.08563 29.277C4.30491 29.4501 4.52417 29.6117 4.75499 29.7502C5.6321 30.281 6.53231 30.5118 7.39788 30.4772C9.53295 30.3733 11.7142 30.2695 13.9416 30.1656L125.289 24.2567H125.369C125.369 24.2567 125.473 24.2451 125.531 24.2336C125.646 24.222 125.762 24.1989 125.877 24.1759C125.912 24.1759 125.935 24.1643 125.97 24.1528C125.993 24.1528 126.027 24.1412 126.05 24.1297C126.108 24.1182 126.154 24.1066 126.212 24.0951C126.235 24.0951 126.247 24.0836 126.27 24.0836H126.304C126.385 24.0489 126.466 24.0258 126.547 23.9912C126.57 23.9912 126.604 23.9681 126.627 23.9566C126.651 23.9566 126.674 23.9335 126.708 23.922C126.766 23.8989 126.824 23.8758 126.881 23.8527C126.985 23.8066 127.101 23.7489 127.204 23.6912L127.239 23.6681H127.262C127.262 23.6681 127.308 23.6219 127.331 23.6104C127.401 23.5757 127.458 23.5411 127.528 23.495C127.632 23.4257 127.747 23.3449 127.851 23.2757L127.874 23.2526C127.874 23.2526 127.908 23.2295 127.92 23.218C127.989 23.1603 128.059 23.1141 128.116 23.0564L128.151 23.0333L128.174 23.0103C128.255 22.941 128.324 22.8717 128.393 22.8025C128.416 22.7794 128.439 22.7563 128.474 22.7332C128.486 22.7217 128.497 22.7102 128.52 22.6986C128.636 22.5832 128.762 22.4563 128.878 22.3178C128.901 22.2947 128.924 22.2601 128.947 22.237C128.959 22.2255 128.97 22.2139 128.982 22.1908C129.016 22.1562 129.051 22.1101 129.074 22.0639C129.132 21.9946 129.201 21.9139 129.259 21.8446C129.305 21.7869 129.34 21.7177 129.386 21.6599C129.455 21.5676 129.513 21.4753 129.582 21.3714C129.617 21.3137 129.663 21.2675 129.697 21.2098V21.1868C129.697 21.1868 129.767 21.0829 129.79 21.0367C129.917 20.8174 130.044 20.5982 130.159 20.3674C130.194 20.2981 130.228 20.2404 130.263 20.1827C130.274 20.1481 130.286 20.1134 130.297 20.0904C130.309 20.0557 130.332 20.0327 130.344 19.998C130.344 19.9865 130.355 19.975 130.367 19.9519C130.505 19.6403 130.644 19.3056 130.759 18.9594C130.782 18.8901 130.805 18.8093 130.828 18.7401V18.717C130.874 18.6131 130.909 18.4977 130.932 18.3939C131.001 18.1631 131.071 17.9207 131.128 17.6668C131.14 17.5975 131.163 17.5398 131.186 17.4706C131.221 17.309 131.255 17.1474 131.29 16.9859C131.348 16.6974 131.394 16.4088 131.44 16.1088C131.44 16.0626 131.44 16.0279 131.452 15.9818C131.463 15.8779 131.475 15.7741 131.486 15.6702C131.509 15.5202 131.521 15.3817 131.544 15.2316C131.544 15.1278 131.555 15.0239 131.567 14.9085C131.567 14.8392 131.579 14.7584 131.579 14.6892C131.579 14.6315 131.579 14.5738 131.59 14.5161C131.59 14.2968 131.613 14.0775 131.613 13.8583C131.613 13.8236 131.613 13.7775 131.613 13.7428C131.613 13.6967 131.613 13.639 131.613 13.5928C131.613 13.4774 131.613 13.362 131.613 13.2351C131.613 13.0389 131.613 12.8427 131.59 12.6465V12.5426C131.579 12.3926 131.567 12.231 131.555 12.081C131.544 11.8963 131.521 11.7116 131.498 11.527V11.4808C131.475 11.3077 131.452 11.1461 131.428 10.973C131.405 10.7884 131.371 10.6152 131.348 10.4306C131.313 10.2459 131.278 10.0728 131.244 9.89971C131.209 9.73814 131.175 9.5881 131.14 9.42653V9.35729C131.082 9.17263 131.036 8.99952 130.99 8.81486C130.955 8.69945 130.921 8.58406 130.886 8.46865C130.886 8.43402 130.863 8.38785 130.851 8.35323C130.851 8.33015 130.84 8.29552 130.828 8.27244C130.771 8.08778 130.701 7.89159 130.644 7.70694C130.621 7.63769 130.598 7.57999 130.574 7.52228C130.551 7.46458 130.528 7.39533 130.505 7.33762C130.482 7.26838 130.448 7.19913 130.424 7.11834C130.344 6.92214 130.263 6.72595 130.171 6.54129V6.50667H130.159C130.055 6.26431 129.94 6.04504 129.824 5.82576C129.813 5.80268 129.79 5.76805 129.778 5.74496C129.709 5.61801 129.628 5.49108 129.547 5.36413C129.478 5.26026 129.42 5.14485 129.351 5.04098C129.34 5.0179 129.316 4.99482 129.293 4.97174C129.19 4.82171 129.086 4.68322 128.982 4.54473C128.901 4.44086 128.832 4.32543 128.751 4.2331C128.636 4.09461 128.52 3.96765 128.405 3.82916C128.324 3.73683 128.255 3.64453 128.174 3.56374C128.035 3.42525 127.897 3.29828 127.758 3.18287C127.689 3.12517 127.62 3.05592 127.551 2.99821C127.331 2.8251 127.112 2.66356 126.881 2.52506C126.662 2.38657 126.431 2.27114 126.212 2.17881C126.131 2.14419 126.062 2.13264 125.981 2.09802C125.843 2.04031 125.693 1.98264 125.554 1.94802H125.543C125.45 1.92493 125.358 1.91337 125.277 1.89029C125.139 1.86721 125.012 1.83259 124.873 1.82105C124.781 1.82105 124.689 1.82105 124.585 1.82105C124.469 1.82105 124.354 1.80951 124.238 1.82105L6.34765 8.04164C6.26686 8.04164 6.18608 8.04162 6.1053 8.06471C5.98989 8.07625 5.87446 8.09932 5.75905 8.1224C5.64364 8.14548 5.53979 8.16857 5.42439 8.20319C5.4013 8.20319 5.38974 8.21474 5.36666 8.21474H5.33204C5.25125 8.24937 5.17047 8.27243 5.08969 8.30706C4.98582 8.34168 4.87041 8.38786 4.76654 8.43403C4.66267 8.48019 4.54727 8.53788 4.4434 8.59558L4.40878 8.61868H4.38567C4.29334 8.68793 4.21258 8.73409 4.12025 8.79179C4.01638 8.86104 3.90098 8.94183 3.79711 9.01107C3.70478 9.08032 3.61243 9.14957 3.5201 9.23035L3.48548 9.25342L3.46241 9.27649C3.347 9.38036 3.2316 9.48425 3.1162 9.58812C3.00079 9.70353 2.8738 9.83047 2.75839 9.96896C2.73531 9.99204 2.71223 10.0267 2.68915 10.0498C2.66607 10.0844 2.64299 10.1074 2.61991 10.1421C2.53912 10.2459 2.45834 10.3383 2.37756 10.4421C2.22752 10.6383 2.07749 10.8576 1.939 11.0769V11.1C1.939 11.1 1.86975 11.2154 1.83513 11.2731C1.67356 11.5385 1.51199 11.8155 1.3735 12.1156C1.35042 12.1502 1.33887 12.1964 1.32733 12.231C1.24654 12.4041 1.17729 12.6003 1.10805 12.785C1.00418 13.0389 0.900332 13.3043 0.808005 13.5813C0.738759 13.789 0.68105 14.0083 0.623345 14.216C0.565641 14.4238 0.496367 14.6084 0.450203 14.8277C0.41558 14.9893 0.380961 15.1508 0.346339 15.3124C0.288634 15.6009 0.242464 15.8895 0.196301 16.1895C0.196301 16.2357 0.196325 16.2703 0.184784 16.3165C0.173243 16.4203 0.161703 16.5242 0.150162 16.6281C0.138621 16.7781 0.115518 16.9166 0.0924363 17.0666C0.0924363 17.1705 0.080908 17.2744 0.069367 17.3898C0.069367 17.4706 0.0578148 17.5398 0.0578148 17.6206C0.0578148 17.6783 0.0578388 17.736 0.0462978 17.7937C0.0347569 18.013 0.0231934 18.2323 0.0231934 18.4516C0.0231934 18.4862 0.0231934 18.5324 0.0231934 18.567C0.0231934 18.6131 0.0231934 18.6709 0.0231934 18.717C0.0231934 18.8324 0.0231934 18.9478 0.0231934 19.0748C0.0231934 19.271 0.0232159 19.4672 0.0462978 19.6633V19.7095C0.0462978 19.7095 0.0462978 19.7557 0.0462978 19.7788C0.0462978 19.9288 0.0693783 20.0904 0.0809193 20.2404C0.0924602 20.4251 0.115528 20.6097 0.13861 20.7944V20.8405C0.161692 21.0137 0.184771 21.1752 0.207853 21.3368C0.230935 21.5215 0.265566 21.6946 0.288648 21.8792C0.323271 22.0639 0.357889 22.237 0.392512 22.4101C0.427135 22.5717 0.461754 22.7217 0.496377 22.8833V22.9525C0.554081 23.1372 0.600251 23.3103 0.646415 23.495C0.681037 23.6104 0.715656 23.7258 0.750279 23.8412C0.76182 23.8758 0.773359 23.922 0.7849 23.9566C0.7849 23.9797 0.796464 24.0143 0.808005 24.0374C0.86571 24.222 0.934924 24.4182 0.992629 24.5914C1.01571 24.6606 1.03879 24.7183 1.06187 24.776C1.08495 24.8337 1.10807 24.9029 1.13115 24.9606C1.15423 25.0299 1.18883 25.1107 1.21191 25.1799C1.2927 25.3761 1.37348 25.5608 1.46581 25.757V25.7916H1.48892C1.59279 26.034 1.70817 26.2533 1.82358 26.4725C1.83512 26.4956 1.85821 26.5302 1.86975 26.5533C1.939 26.6802 2.0198 26.8072 2.10059 26.9342C2.16983 27.038 2.22752 27.1534 2.29676 27.2573C2.3083 27.2804 2.33141 27.3035 2.35449 27.3266C2.45836 27.4766 2.56221 27.6151 2.66608 27.7536C2.74687 27.8574 2.81613 27.9728 2.89691 28.0652L2.86229 28.0305Z" fill="url(#paint1_linear_12_216)"/>
<path d="M13.3993 23.2181C14.5649 17.413 12.5914 10.9385 8.97909 8.73415C5.36677 6.54137 1.50056 9.46123 0.334927 15.2663C-0.830709 21.0714 1.14278 27.5459 4.7551 29.7502C8.36741 31.943 12.2336 29.0232 13.3993 23.2181Z" fill="url(#paint2_linear_12_216)"/>
<defs>
<radialGradient id="paint0_radial_12_216" cx="0" cy="0" r="1" gradientUnits="userSpaceOnUse" gradientTransform="translate(73.8674 37.2338) rotate(153.65) scale(48.8759 20.9468)">
<stop stop-color="#98969C"/>
<stop offset="0.14" stop-color="#9D9BA1" stop-opacity="0.95"/>
<stop offset="0.34" stop-color="#ADACB1" stop-opacity="0.81"/>
<stop offset="0.58" stop-color="#C8C7CA" stop-opacity="0.58"/>
<stop offset="0.86" stop-color="#ECECED" stop-opacity="0.26"/>
<stop offset="0.98" stop-color="white" stop-opacity="0.1"/>
</radialGradient>
<linearGradient id="paint1_linear_12_216" x1="65.235" y1="6.31617" x2="66.7838" y2="30.692" gradientUnits="userSpaceOnUse">
<stop stop-color="#F4EEF7"/>
<stop offset="0.23" stop-color="#ECEAF3"/>
<stop offset="0.44" stop-color="#E0E4EE"/>
<stop offset="0.62" stop-color="#D9DEE8"/>
<stop offset="0.86" stop-color="#C8CDD7"/>
<stop offset="1" stop-color="#BCC1CB"/>
</linearGradient>
<linearGradient id="paint2_linear_12_216" x1="-6.63927" y1="33.8224" x2="35.3048" y2="-11.2481" gradientUnits="userSpaceOnUse">
<stop stop-color="#BCC1CB"/>
<stop offset="0.56" stop-color="#E0E4EE"/>
<stop offset="0.77" stop-color="#ECEAF3"/>
<stop offset="1" stop-color="#F4EEF7"/>
</linearGradient>
</defs>
</svg>
