<svg width="70" height="81" viewBox="0 0 70 81" fill="none" xmlns="http://www.w3.org/2000/svg">
<path d="M56.4352 80.5328C56.2506 80.5328 56.0774 80.5328 55.9043 80.5328C55.7889 80.5328 55.662 80.5328 55.5466 80.5328C55.3619 80.5328 55.1773 80.4981 54.9926 80.4751C54.9003 80.4751 54.7964 80.4635 54.7041 80.4404C54.4271 80.3943 54.1617 80.3366 53.8962 80.2558C52.9037 79.9673 52.1305 79.4479 51.588 78.7785C50.2377 77.1282 48.8413 75.4317 47.4333 73.7121L1.01557 16.0073L0.980953 15.9727L0.957883 15.9496C0.957883 15.9496 0.888642 15.8688 0.854019 15.8226C0.784773 15.7303 0.715512 15.6264 0.657807 15.5341C0.646266 15.511 0.62321 15.4764 0.611669 15.4533C0.600128 15.4303 0.588577 15.4072 0.565495 15.3841C0.542413 15.3379 0.507782 15.2918 0.4847 15.2456C0.4847 15.2341 0.473172 15.211 0.461631 15.1994V15.1648C0.403926 15.084 0.369296 15.0148 0.346214 14.934C0.346214 14.9109 0.323145 14.8763 0.323145 14.8532C0.323145 14.8301 0.300041 14.807 0.300041 14.7724C0.276959 14.7147 0.253891 14.657 0.24235 14.5993C0.207727 14.4839 0.173109 14.3685 0.138486 14.2531V14.1838C0.138486 14.1838 0.115405 14.1261 0.103864 14.103C0.0923234 14.0338 0.0692316 13.953 0.0576907 13.8838C0.0346088 13.7568 0.023058 13.6299 0.011517 13.4914V13.4568C0.011517 13.4568 0.011517 13.4106 0.011517 13.399C0.011517 13.3183 0 13.2259 0 13.1451V13.0759C0 12.972 0 12.8682 0 12.7758C0 12.7412 0 12.7066 0 12.672C0 12.6489 0 12.6373 0 12.6143C0 12.4411 0.0230565 12.268 0.0461384 12.0949C0.0461384 12.0603 0.0576907 12.0257 0.0576907 11.991C0.0576907 11.968 0.0576907 11.9564 0.0576907 11.9333C0.0576907 11.8872 0.0807599 11.8295 0.0807599 11.7833C0.0923008 11.691 0.103852 11.5987 0.126934 11.4948C0.138474 11.4255 0.161542 11.3448 0.184624 11.2755C0.207706 11.1601 0.230796 11.0447 0.265419 10.9408C0.27696 10.8716 0.288511 10.8139 0.311593 10.7446V10.7215C0.311593 10.7215 0.357754 10.6061 0.380836 10.56C0.450082 10.3176 0.542411 10.0753 0.634738 9.8329C0.65782 9.76365 0.680899 9.6944 0.703981 9.62516C0.715522 9.59054 0.738614 9.55591 0.750155 9.53283C0.761696 9.49821 0.773235 9.46358 0.784776 9.4405C0.784776 9.42896 0.784752 9.40588 0.796293 9.39433C0.934785 9.07119 1.09636 8.75959 1.26948 8.43644C1.3041 8.3672 1.35027 8.30948 1.38489 8.24024V8.21716C1.45414 8.12483 1.51185 8.02096 1.56955 7.92864C1.6965 7.7209 1.835 7.51316 1.97349 7.29388C2.00812 7.23618 2.04273 7.17848 2.07736 7.12077C2.16968 6.98228 2.26201 6.85532 2.36588 6.71683C2.539 6.47447 2.72365 6.24366 2.90831 6.02438C2.93139 5.98976 2.96602 5.95514 2.9891 5.92051C3.05835 5.83973 3.12758 5.75894 3.19683 5.67815C3.28916 5.56275 3.38149 5.45888 3.48535 5.34347C3.5546 5.26268 3.63539 5.19343 3.70464 5.11264C3.7508 5.05494 3.80851 5.00877 3.85467 4.95107C3.90084 4.90491 3.93544 4.85874 3.98161 4.82412C4.13164 4.67409 4.29322 4.51251 4.45479 4.36248C4.47787 4.3394 4.51248 4.31631 4.5471 4.28169C4.58173 4.24707 4.61635 4.21245 4.66252 4.17783C4.75485 4.09704 4.83565 4.01626 4.92797 3.93547C5.07801 3.80852 5.22802 3.68157 5.37805 3.55462L5.41267 3.53154L5.4704 3.48537C5.58581 3.39304 5.71276 3.28918 5.82817 3.19685C5.9782 3.08144 6.12821 2.97757 6.27824 2.86216H6.2898L6.3129 2.83907C6.45139 2.7352 6.58987 2.64288 6.72836 2.55055C6.87839 2.44668 7.02842 2.34282 7.18999 2.25049C7.34002 2.14662 7.50159 2.05429 7.65162 1.96197C7.79011 1.88118 7.92862 1.80039 8.06711 1.71961L8.10173 1.69652H8.1248C8.28638 1.59265 8.45952 1.51187 8.62109 1.41954C8.72496 1.36184 8.84037 1.31567 8.94424 1.25797C8.97886 1.23489 9.01348 1.22334 9.0481 1.20026C9.07118 1.18872 9.09424 1.17718 9.12886 1.16564C9.31352 1.08485 9.48663 1.00407 9.67129 0.934823C9.72899 0.911741 9.79824 0.888653 9.85595 0.865571C9.91365 0.842489 9.9829 0.81941 10.0406 0.796328C10.1099 0.773247 10.1791 0.738624 10.2483 0.715542C10.4445 0.646296 10.6407 0.57705 10.8485 0.507805H10.8946C11.137 0.415477 11.3794 0.346229 11.6217 0.288524C11.6563 0.288524 11.6794 0.288528 11.7141 0.265446C11.8641 0.230823 12.0026 0.207739 12.1526 0.173116C12.2796 0.150034 12.4065 0.115412 12.5219 0.0923297C12.5565 0.0923297 12.5796 0.0923297 12.6143 0.0923297C12.7874 0.0692478 12.9605 0.0461624 13.1451 0.0346214C13.2721 0.0230805 13.4106 0 13.5375 0C13.7222 0 13.8953 0 14.0684 0C14.1838 0 14.3108 0 14.4262 0C14.6224 0 14.807 0.0346264 14.9917 0.0577083C15.084 0.0577083 15.1879 0.0692478 15.2802 0.0923297C15.5572 0.138494 15.8226 0.196203 16.0881 0.276989C16.342 0.346235 16.5728 0.438558 16.7921 0.542426C16.8729 0.577049 16.9306 0.623211 16.9998 0.657834C17.1383 0.72708 17.2768 0.796328 17.4037 0.877115H17.4153C17.4961 0.93482 17.5653 1.00407 17.6346 1.05023C17.7384 1.13102 17.8538 1.21181 17.9577 1.30413C18.027 1.37338 18.0846 1.44262 18.1539 1.51187C18.2347 1.59266 18.327 1.67344 18.3962 1.76576L68.9687 64.537C69.0149 64.5947 69.0726 64.664 69.1187 64.7332C69.188 64.8255 69.2572 64.9294 69.3149 65.0217C69.3727 65.1141 69.4303 65.2179 69.4765 65.3218C69.4765 65.3333 69.4881 65.3564 69.4996 65.368V65.4026C69.5573 65.4834 69.5919 65.5526 69.615 65.6334C69.6611 65.7373 69.6958 65.8527 69.7304 65.9566C69.765 66.072 69.7996 66.1874 69.8343 66.3028V66.372C69.8689 66.4759 69.892 66.5682 69.9151 66.6721C69.9381 66.799 69.9497 66.926 69.9612 67.0645C69.9612 67.1799 69.9728 67.2953 69.9843 67.4222V67.4915C69.9843 67.6415 69.9843 67.8031 69.9843 67.9531C69.9843 68.1262 69.9612 68.2994 69.9381 68.4725C69.9381 68.5071 69.9382 68.5417 69.9266 68.5763C69.9266 68.611 69.9151 68.6571 69.9035 68.6917C69.8804 68.8187 69.8689 68.9457 69.8458 69.0726C69.7997 69.315 69.742 69.5689 69.6612 69.8228V69.8458C69.6381 69.9035 69.6035 69.9613 69.5919 70.0305C69.4996 70.3306 69.3957 70.6306 69.2688 70.9422C69.2572 70.9769 69.2342 71.023 69.2111 71.0576C69.1303 71.2308 69.038 71.4154 68.9572 71.6001C68.8302 71.854 68.7148 72.0963 68.5763 72.3502C68.4724 72.5349 68.3455 72.7311 68.2301 72.9157C68.1147 73.0889 68.0223 73.2735 67.8954 73.4466C67.8031 73.5851 67.7107 73.7121 67.6069 73.8506C67.4338 74.0929 67.2491 74.3237 67.0644 74.543C67.0414 74.5776 67.0067 74.6123 66.9837 74.6353C66.9144 74.7161 66.8452 74.7969 66.7759 74.8777C66.6836 74.9931 66.5913 75.097 66.4874 75.2124C66.4182 75.2932 66.3374 75.3624 66.2681 75.4432C66.2104 75.5009 66.1643 75.5586 66.1066 75.6048C66.0604 75.6509 66.0258 75.6971 65.9796 75.7317C65.8296 75.8933 65.668 76.0433 65.5064 76.1934C65.4833 76.2165 65.4487 76.2395 65.4141 76.2741C65.3795 76.3088 65.3448 76.3434 65.2987 76.378C65.2064 76.4588 65.1256 76.5396 65.0332 76.6088C64.8832 76.7358 64.7332 76.8627 64.5832 76.9897L64.5485 77.0128C64.5485 77.0128 64.5139 77.0359 64.5024 77.0589C64.3869 77.1513 64.26 77.2551 64.1446 77.3475C63.9946 77.4629 63.8445 77.5783 63.6945 77.6821H63.683L63.6599 77.7052C63.5214 77.8091 63.3829 77.9014 63.2444 77.9938C63.0944 78.0976 62.9443 78.2015 62.7828 78.2938C62.6327 78.3977 62.4712 78.49 62.3211 78.5823C62.1826 78.6631 62.0441 78.7439 61.9056 78.8247L61.871 78.8478H61.8479C61.6864 78.9517 61.5132 79.0324 61.3517 79.1248C61.2478 79.1825 61.1324 79.2286 61.0285 79.2863C60.9939 79.3094 60.9593 79.321 60.9131 79.344C60.8901 79.3556 60.867 79.3671 60.8323 79.3787C60.6477 79.4594 60.4746 79.5402 60.2899 79.6095C60.2322 79.6326 60.163 79.6557 60.1053 79.6787C60.0476 79.7018 59.9783 79.7249 59.9206 79.748C59.8513 79.7711 59.7821 79.8057 59.7013 79.8288C59.5051 79.898 59.3089 79.9672 59.1128 80.025H59.0666C58.8242 80.1173 58.5819 80.1865 58.3395 80.2442C58.3049 80.2442 58.2818 80.2442 58.2472 80.2673C58.0971 80.3019 57.9586 80.325 57.8086 80.3596C57.6817 80.3827 57.5547 80.4174 57.4393 80.4404C57.4047 80.4404 57.3816 80.4404 57.347 80.4404C57.1738 80.4635 57.0007 80.4866 56.8161 80.4981C56.6891 80.5097 56.5506 80.5328 56.4237 80.5328H56.4352Z" fill="url(#paint0_linear_12_221)"/>
<path d="M52.9499 69.4882C56.4699 64.7333 62.6097 61.8596 66.649 63.0598C70.6999 64.2601 71.1269 69.0958 67.6069 73.8506C64.0869 78.6055 57.9471 81.4792 53.9078 80.2789C49.8569 79.0787 49.4299 74.243 52.9499 69.4882Z" fill="url(#paint1_linear_12_221)"/>
<defs>
<linearGradient id="paint0_linear_12_221" x1="42.4755" y1="34.3305" x2="23.9343" y2="49.0486" gradientUnits="userSpaceOnUse">
<stop stop-color="#F4EEF7"/>
<stop offset="0.23" stop-color="#ECEAF3"/>
<stop offset="0.44" stop-color="#E0E4EE"/>
<stop offset="0.62" stop-color="#D9DEE8"/>
<stop offset="0.86" stop-color="#C8CDD7"/>
<stop offset="1" stop-color="#BCC1CB"/>
</linearGradient>
<linearGradient id="paint1_linear_12_221" x1="58.568" y1="91.4719" x2="63.8782" y2="30.133" gradientUnits="userSpaceOnUse">
<stop stop-color="#BCC1CB"/>
<stop offset="0.56" stop-color="#E0E4EE"/>
<stop offset="0.77" stop-color="#ECEAF3"/>
<stop offset="1" stop-color="#F4EEF7"/>
</linearGradient>
</defs>
</svg>
