<svg width="236" height="188" viewBox="0 0 236 188" fill="none" xmlns="http://www.w3.org/2000/svg">
<path d="M234.255 98.1959C234.381 97.6304 234.508 97.0649 234.624 96.5109C234.67 96.2686 234.739 96.0262 234.785 95.7838C234.809 95.6338 234.82 95.4953 234.843 95.3453C235.166 93.6026 235.409 91.8599 235.57 90.1518C235.57 90.048 235.605 89.9325 235.616 89.8171C235.628 89.6556 235.616 89.494 235.639 89.3324C235.778 87.6936 235.859 86.0548 235.859 84.4391C235.859 84.3929 235.859 84.3468 235.859 84.289C235.859 84.1736 235.847 84.0467 235.847 83.9313C235.847 82.4079 235.766 80.896 235.628 79.3957C235.628 79.2803 235.628 79.1649 235.616 79.0494C235.616 79.0033 235.605 78.9571 235.593 78.911C235.443 77.3991 235.224 75.9219 234.959 74.4446C234.936 74.2946 234.924 74.133 234.889 73.983C234.866 73.856 234.82 73.7291 234.797 73.6021C234.508 72.1595 234.174 70.7284 233.77 69.3089C233.747 69.2166 233.724 69.1127 233.701 69.0204C233.504 68.351 233.308 67.6932 233.089 67.0469L226.753 47.9351C226.995 48.6852 227.215 49.4354 227.434 50.1971C227.838 51.6051 228.173 53.0477 228.461 54.4903C228.519 54.7673 228.565 55.0443 228.611 55.3213C228.877 56.7985 229.096 58.2873 229.246 59.7876C229.257 59.9492 229.269 60.1107 229.28 60.2839C229.407 61.7842 229.488 63.296 229.5 64.8194C229.5 64.981 229.5 65.1542 229.5 65.3157C229.5 66.9315 229.419 68.5703 229.28 70.2091C229.257 70.4745 229.234 70.7515 229.211 71.017C229.05 72.7366 228.796 74.4677 228.473 76.2219C228.403 76.6028 228.334 76.9951 228.253 77.376C228.138 77.9415 228.011 78.507 227.884 79.0725C227.769 79.5919 227.642 80.1112 227.515 80.6306C227.376 81.1961 227.215 81.7616 227.053 82.3386C226.915 82.8349 226.764 83.3427 226.614 83.8389C226.372 84.6237 226.118 85.397 225.853 86.1817C225.714 86.5972 225.576 87.0127 225.426 87.4282C225.08 88.3861 224.71 89.344 224.318 90.3019C224.214 90.5442 224.133 90.7866 224.029 91.029C223.729 91.756 223.395 92.4831 223.071 93.1987C222.898 93.5911 222.737 93.9719 222.552 94.3643C222.021 95.4837 221.467 96.6032 220.89 97.7227C220.255 98.9345 219.598 100.123 218.905 101.312C218.813 101.462 218.72 101.612 218.628 101.762C217.913 102.985 217.151 104.186 216.378 105.386C216.101 105.801 215.824 106.228 215.535 106.644C214.889 107.602 214.231 108.548 213.55 109.483C213.25 109.898 212.962 110.314 212.65 110.718C211.796 111.86 210.919 112.991 210.019 114.111C209.892 114.272 209.776 114.422 209.649 114.584C208.611 115.854 207.537 117.1 206.441 118.323C206.118 118.681 205.795 119.027 205.471 119.385C204.652 120.274 203.821 121.162 202.967 122.039C202.586 122.432 202.205 122.824 201.813 123.217C200.89 124.14 199.955 125.04 199.008 125.94C198.72 126.217 198.443 126.494 198.143 126.76C196.908 127.902 195.639 129.033 194.334 130.141C194.023 130.407 193.7 130.661 193.388 130.926C192.372 131.78 191.345 132.623 190.307 133.453C189.903 133.777 189.499 134.088 189.083 134.411C187.514 135.635 185.921 136.835 184.294 138.001C184.271 138.012 184.259 138.035 184.236 138.047C182.586 139.224 180.889 140.367 179.181 141.486C178.835 141.717 178.489 141.936 178.142 142.155C175.465 143.875 172.707 145.537 169.902 147.118C169.729 147.222 169.544 147.326 169.371 147.418C166.89 148.803 164.351 150.119 161.777 151.388C161.581 151.492 161.373 151.596 161.177 151.688C158.915 152.785 156.619 153.835 154.299 154.839C153.941 154.989 153.595 155.15 153.237 155.301C151.125 156.201 148.978 157.055 146.82 157.874C146.405 158.036 145.978 158.186 145.551 158.347C143.416 159.132 141.269 159.894 139.099 160.609C138.984 160.644 138.869 160.679 138.753 160.713C136.71 161.371 134.656 161.983 132.602 162.571C132.163 162.698 131.725 162.825 131.298 162.941C129.209 163.518 127.108 164.049 124.996 164.545C124.604 164.637 124.223 164.718 123.831 164.81C121.846 165.26 119.861 165.676 117.876 166.057C117.587 166.114 117.299 166.172 117.01 166.23C114.794 166.634 112.578 166.991 110.362 167.303C109.878 167.372 109.381 167.442 108.897 167.511C106.842 167.788 104.8 168.03 102.745 168.226C101.568 168.342 100.38 168.388 99.2023 168.469C97.4481 168.596 95.6939 168.723 93.9512 168.78C91.7931 168.861 89.6349 168.907 87.4767 168.896C87.0613 168.896 86.6574 168.884 86.2419 168.873C84.3722 168.85 82.5026 168.769 80.6445 168.665C79.9405 168.63 79.225 168.596 78.521 168.549C76.1782 168.388 73.8469 168.18 71.5272 167.903C70.3154 167.753 69.1497 167.557 67.9725 167.372C66.9338 167.222 65.8836 167.084 64.868 166.911C63.7255 166.715 62.6176 166.461 61.4981 166.23C60.5171 166.034 59.513 165.849 58.5436 165.63C57.4241 165.376 56.3623 165.064 55.2775 164.776C54.3542 164.533 53.4079 164.314 52.5077 164.049C51.4228 163.737 50.3957 163.368 49.3455 163.021C48.4914 162.744 47.6028 162.479 46.7718 162.179C45.7447 161.81 44.7752 161.394 43.7712 161.002C42.9518 160.679 42.1208 160.379 41.3245 160.044C40.3666 159.628 39.4549 159.178 38.5316 158.74C37.7584 158.37 36.9505 158.036 36.1888 157.643C35.254 157.17 34.3653 156.651 33.4651 156.143C32.7726 155.762 32.0456 155.393 31.3762 155C30.476 154.47 29.6451 153.904 28.7795 153.339C28.1447 152.923 27.4869 152.542 26.8637 152.115C26.0558 151.561 25.3056 150.961 24.5439 150.384C23.9323 149.922 23.286 149.484 22.6974 148.999C21.9472 148.399 21.2663 147.764 20.5508 147.141C19.9853 146.645 19.3967 146.172 18.8543 145.675C18.1272 144.994 17.4693 144.29 16.7884 143.586C16.3152 143.102 15.8074 142.64 15.3573 142.144C14.688 141.405 14.0763 140.632 13.4415 139.87C13.0376 139.386 12.5991 138.912 12.2182 138.416C11.6296 137.666 11.1103 136.881 10.5679 136.108C10.1985 135.577 9.78309 135.058 9.42532 134.515C8.85981 133.65 8.36353 132.761 7.85573 131.872C7.57875 131.388 7.26715 130.926 7.00171 130.441C6.44774 129.403 5.96302 128.341 5.4783 127.279C5.31672 126.91 5.10897 126.564 4.95894 126.194C4.33573 124.752 3.78178 123.286 3.28552 121.809L9.62149 140.92C10.1178 142.409 10.6717 143.875 11.2949 145.306C11.4565 145.675 11.6527 146.022 11.8143 146.391C12.299 147.453 12.7837 148.514 13.3377 149.553C13.6031 150.038 13.9147 150.511 14.1917 150.984C14.6995 151.873 15.1958 152.761 15.7613 153.627C16.1191 154.169 16.523 154.689 16.9038 155.22C17.4463 155.993 17.9656 156.778 18.5542 157.528C18.9581 158.047 19.4082 158.544 19.8352 159.051C20.4469 159.79 21.0355 160.54 21.6933 161.256C22.1665 161.775 22.6974 162.26 23.1937 162.768C23.8515 163.437 24.4863 164.129 25.1903 164.787C25.7327 165.295 26.3212 165.768 26.8867 166.253C27.5907 166.876 28.2832 167.511 29.0334 168.111C29.622 168.584 30.2683 169.034 30.8799 169.496C31.6532 170.073 32.4033 170.673 33.1996 171.227C33.8459 171.677 34.5384 172.081 35.2078 172.52C36.0387 173.05 36.8351 173.604 37.7006 174.112C38.4277 174.539 39.1894 174.932 39.9396 175.336C40.7936 175.809 41.6361 176.305 42.5248 176.755C43.298 177.148 44.1174 177.494 44.9022 177.863C45.8139 178.29 46.7141 178.74 47.6605 179.144C48.4914 179.502 49.3685 179.813 50.211 180.148C51.1689 180.529 52.1037 180.921 53.0963 181.279C53.9965 181.602 54.9313 181.879 55.8545 182.179C56.8471 182.503 57.8165 182.849 58.8321 183.149C59.7669 183.426 60.7479 183.645 61.6943 183.899C62.7445 184.176 63.7832 184.476 64.868 184.73C65.8605 184.961 66.8877 185.145 67.9033 185.353C68.9997 185.572 70.073 185.826 71.1925 186.023C72.2542 186.207 73.3622 186.346 74.447 186.507C75.5319 186.669 76.6052 186.853 77.7131 186.992L77.8631 187.015C80.1829 187.292 82.5141 187.5 84.8569 187.661C85.561 187.707 86.2765 187.742 86.9805 187.777C87.8922 187.823 88.804 187.904 89.7272 187.927C90.6736 187.961 91.6315 187.961 92.5894 187.973C93.0049 187.973 93.4088 187.996 93.8243 187.996C95.6939 188.008 97.5636 187.996 99.4447 187.938C99.7333 187.938 100.022 187.892 100.299 187.892C102.053 187.823 103.807 187.707 105.55 187.581C106.381 187.523 107.212 187.5 108.043 187.431C108.389 187.396 108.747 187.373 109.093 187.338C111.147 187.142 113.202 186.9 115.244 186.623C115.498 186.588 115.752 186.565 116.006 186.53C116.237 186.496 116.479 186.45 116.71 186.415C118.926 186.103 121.153 185.746 123.358 185.342C123.438 185.33 123.519 185.319 123.6 185.307C123.808 185.272 124.015 185.215 124.235 185.18C126.231 184.799 128.216 184.384 130.19 183.934C130.444 183.876 130.698 183.83 130.952 183.772C131.09 183.737 131.217 183.703 131.355 183.668C133.467 183.172 135.568 182.641 137.657 182.064C137.83 182.018 138.015 181.972 138.188 181.925C138.453 181.856 138.707 181.764 138.961 181.695C141.027 181.106 143.081 180.494 145.112 179.837C145.205 179.813 145.297 179.779 145.378 179.756C145.401 179.756 145.424 179.733 145.447 179.733C147.617 179.029 149.763 178.267 151.898 177.471C152.141 177.378 152.383 177.309 152.625 177.217C152.81 177.148 152.983 177.067 153.168 176.997C155.326 176.178 157.473 175.324 159.585 174.424C159.735 174.366 159.885 174.308 160.035 174.251C160.242 174.158 160.45 174.055 160.658 173.962C162.978 172.958 165.274 171.919 167.536 170.812C167.606 170.777 167.675 170.754 167.744 170.719C167.883 170.65 168.01 170.581 168.136 170.511C170.71 169.242 173.249 167.926 175.73 166.541C175.8 166.507 175.869 166.472 175.938 166.438C176.054 166.38 176.157 166.299 176.261 166.241C179.077 164.66 181.824 163.01 184.513 161.279C184.652 161.198 184.79 161.117 184.929 161.036C185.136 160.898 185.344 160.748 185.552 160.621C187.271 159.501 188.968 158.359 190.618 157.182C190.63 157.182 190.653 157.159 190.664 157.147C192.303 155.981 193.896 154.77 195.465 153.558C195.662 153.396 195.881 153.258 196.077 153.096C196.285 152.935 196.481 152.762 196.677 152.6C197.716 151.769 198.743 150.926 199.759 150.072C200.07 149.807 200.393 149.553 200.705 149.288C201.998 148.18 203.267 147.049 204.514 145.906C204.802 145.641 205.091 145.364 205.379 145.087C206.337 144.187 207.272 143.286 208.184 142.363C208.576 141.971 208.957 141.578 209.338 141.186C210.192 140.309 211.023 139.42 211.842 138.532C212.165 138.174 212.5 137.827 212.812 137.47C213.908 136.235 214.993 134.988 216.02 133.73C216.147 133.58 216.262 133.419 216.389 133.257C217.289 132.138 218.167 131.007 219.021 129.864C219.321 129.46 219.621 129.045 219.921 128.629C220.602 127.695 221.259 126.748 221.906 125.79C222.183 125.375 222.471 124.959 222.748 124.532C223.533 123.332 224.283 122.132 224.999 120.908C225.068 120.782 225.16 120.655 225.23 120.528C225.241 120.505 225.253 120.481 225.276 120.447C225.968 119.258 226.626 118.058 227.261 116.858C227.849 115.738 228.403 114.619 228.923 113.499C229.107 113.107 229.269 112.714 229.442 112.334C229.765 111.606 230.1 110.879 230.4 110.164C230.411 110.129 230.434 110.095 230.446 110.072C230.538 109.864 230.608 109.644 230.688 109.437C231.081 108.479 231.45 107.521 231.796 106.563C231.946 106.148 232.085 105.721 232.223 105.305C232.489 104.52 232.743 103.747 232.985 102.974C233.043 102.778 233.124 102.581 233.17 102.385C233.262 102.074 233.331 101.774 233.412 101.462C233.574 100.896 233.724 100.331 233.874 99.7539C234.001 99.2346 234.128 98.7037 234.243 98.1843L234.255 98.1959Z" fill="url(#paint0_linear_12_185)"/>
<path d="M158.546 1.84052C148.309 0.594097 137.807 0.524852 127.328 1.51737C77.9555 6.16838 28.9641 34.1667 9.15982 71.9979C-14.8684 117.862 13.0376 160.794 71.5387 167.915C81.7755 169.161 92.2778 169.23 102.757 168.238C152.118 163.587 201.097 135.589 220.925 97.7573C244.953 51.8936 217.024 8.96129 158.546 1.84052Z" fill="url(#paint1_linear_12_185)"/>
<g style="mix-blend-mode:overlay" opacity="0.69">
<path style="mix-blend-mode:overlay" opacity="0.69" d="M228.53 76.2335C228.53 76.2335 228.357 77.1914 228.046 78.9803C227.676 80.7576 227.122 83.3774 226.061 86.6088C225.01 89.8403 223.51 93.7065 221.398 97.9536C220.255 100.019 219.032 102.224 217.739 104.543C216.355 106.806 214.693 109.091 213.065 111.537C211.288 113.857 209.361 116.223 207.376 118.67C205.206 120.955 203.082 123.448 200.67 125.767C198.201 128.029 195.812 130.534 193.03 132.703C191.668 133.823 190.295 134.954 188.91 136.096C187.491 137.193 185.99 138.22 184.513 139.293C178.616 143.633 172.06 147.43 165.32 151.088C158.454 154.504 151.367 157.817 143.981 160.356C136.653 163.045 129.07 164.949 121.58 166.645C114.044 168.099 106.554 169.184 99.2601 169.715C84.6377 170.731 70.9501 169.3 59.5592 166.645C48.1337 164.037 39.2241 159.836 33.3612 156.455C30.4068 154.781 28.2486 153.189 26.7598 152.15C25.3172 151.054 24.5439 150.465 24.5439 150.465C24.5439 150.465 25.3403 151.007 26.8406 152.034C28.3756 153.004 30.6145 154.435 33.6152 155.993C39.5703 159.178 48.5838 162.825 59.8939 165.157C71.1694 167.557 84.7416 168.457 99.0985 167.372C106.289 166.795 113.652 165.664 121.061 164.176C128.424 162.444 135.868 160.506 143.07 157.805C150.363 155.37 157.357 152.15 164.155 148.849C170.826 145.295 177.312 141.601 183.151 137.377C184.617 136.327 186.094 135.335 187.514 134.261C188.899 133.165 190.272 132.069 191.622 130.995C194.415 128.93 196.816 126.529 199.309 124.359C201.744 122.132 203.879 119.731 206.083 117.527C208.091 115.161 210.053 112.876 211.854 110.637C213.516 108.294 215.154 106.09 216.632 103.909C218.005 101.658 219.298 99.5116 220.521 97.5035C222.771 93.3834 224.41 89.621 225.576 86.4588C226.741 83.285 227.469 80.7345 227.919 78.9687C228.334 77.203 228.553 76.2566 228.553 76.2566L228.53 76.2335Z" fill="url(#paint2_linear_12_185)"/>
</g>
<path style="mix-blend-mode:screen" d="M9.0329 72.8058C28.8372 34.9746 77.8285 6.97622 127.201 2.32522C137.68 1.3327 148.182 1.40194 158.419 2.64836C206.799 8.53425 234.266 38.9447 228.703 75.241C234.797 38.5869 207.283 7.77257 158.557 1.84052C148.321 0.594097 137.818 0.524852 127.339 1.51737C77.967 6.16838 28.9757 34.1667 9.17138 71.9979C5.01664 79.915 2.41991 87.7514 1.25427 95.3222C2.47761 87.9937 5.02819 80.4459 9.0329 72.8058Z" fill="url(#paint3_linear_12_185)"/>
<defs>
<linearGradient id="paint0_linear_12_185" x1="301.636" y1="-39.4105" x2="-4.82295" y2="229.164" gradientUnits="userSpaceOnUse">
<stop stop-color="#F4EEF7"/>
<stop offset="0.23" stop-color="#ECEAF3"/>
<stop offset="0.44" stop-color="#E0E4EE"/>
<stop offset="0.62" stop-color="#D9DEE8"/>
<stop offset="0.86" stop-color="#C8CDD7"/>
<stop offset="1" stop-color="#BCC1CB"/>
</linearGradient>
<linearGradient id="paint1_linear_12_185" x1="189.06" y1="-71.1214" x2="28.0754" y2="268.171" gradientUnits="userSpaceOnUse">
<stop stop-color="#F9F8FD"/>
<stop offset="0.54" stop-color="#F2F3F8"/>
<stop offset="0.65" stop-color="#EBEDF2"/>
<stop offset="0.81" stop-color="#DADDE4"/>
<stop offset="0.99" stop-color="#BDC2CC"/>
<stop offset="1" stop-color="#BCC1CB"/>
</linearGradient>
<linearGradient id="paint2_linear_12_185" x1="31.8803" y1="102.764" x2="220.195" y2="134.277" gradientUnits="userSpaceOnUse">
<stop stop-color="white" stop-opacity="0.1"/>
<stop offset="0.29" stop-color="white" stop-opacity="0.68"/>
<stop offset="0.46" stop-color="white"/>
<stop offset="0.51" stop-color="white" stop-opacity="0.96"/>
<stop offset="0.59" stop-color="white" stop-opacity="0.84"/>
<stop offset="0.69" stop-color="white" stop-opacity="0.66"/>
<stop offset="0.81" stop-color="white" stop-opacity="0.4"/>
<stop offset="0.95" stop-color="white" stop-opacity="0.08"/>
<stop offset="0.98" stop-color="white" stop-opacity="0"/>
</linearGradient>
<linearGradient id="paint3_linear_12_185" x1="178.571" y1="-74.7835" x2="-21.5016" y2="421.132" gradientUnits="userSpaceOnUse">
<stop stop-color="#F4EEF7"/>
<stop offset="0.28" stop-color="#ECEAF3"/>
<stop offset="0.54" stop-color="#E0E4EE"/>
<stop offset="1" stop-color="#BCC1CB"/>
</linearGradient>
</defs>
</svg>
