<svg width="160" height="249" viewBox="0 0 160 249" fill="none" xmlns="http://www.w3.org/2000/svg">
<path style="mix-blend-mode:multiply" opacity="0.58" d="M149.311 239.417C135.369 257.363 93.1988 247.946 55.1137 218.366C17.0286 188.787 -2.55643 150.263 11.385 132.317C25.3265 114.371 67.4971 123.788 105.582 153.368C143.667 182.947 163.252 221.471 149.311 239.417Z" fill="url(#paint0_radial_12_191)"/>
<path d="M24.0801 111.774L20.0292 95.4899C14.8242 74.5662 20.1562 52.2113 34.3862 34.4037C40.8491 26.3134 49.147 19.1581 59.1299 13.4915L63.1808 29.7757C43.2265 41.0859 29.9775 58.3973 24.7033 77.2206C23.907 80.0481 23.2953 82.8987 22.8683 85.7724C22.4413 88.6461 22.1989 91.5429 22.1412 94.4397C22.0258 100.233 22.6605 106.05 24.0801 111.763V111.774Z" fill="url(#paint1_linear_12_191)"/>
<path d="M8.46514 122.75C8.10737 121.734 7.78422 120.707 7.48415 119.68C7.40337 119.426 7.33412 119.172 7.25334 118.918C6.95327 117.891 6.66475 116.864 6.41085 115.825L2.35999 99.5407C2.61389 100.579 2.90241 101.607 3.20247 102.634C3.27172 102.888 3.3525 103.141 3.43329 103.395C3.74489 104.423 4.06804 105.45 4.42581 106.465C4.42581 106.488 4.43735 106.511 4.44889 106.535C4.79512 107.527 5.16442 108.52 5.55682 109.512C5.66068 109.766 5.75302 110.02 5.85689 110.274C6.26083 111.278 6.68784 112.282 7.13794 113.286C7.13794 113.309 7.16102 113.332 7.17256 113.355C7.61112 114.336 8.08429 115.294 8.56901 116.264C8.69596 116.517 8.82291 116.76 8.94986 117.014C9.45766 117.995 9.977 118.976 10.531 119.957L10.5541 119.991C11.0965 120.949 11.6735 121.907 12.2621 122.853C12.4121 123.096 12.5622 123.338 12.7122 123.581C13.3239 124.538 13.9355 125.496 14.5934 126.431C15.1704 127.274 15.7821 128.093 16.3938 128.912C16.5669 129.143 16.74 129.386 16.9131 129.616C17.6171 130.551 18.3442 131.463 19.0944 132.375C19.2675 132.594 19.4521 132.802 19.6368 133.009C20.2138 133.69 20.7909 134.371 21.3795 135.029C21.6565 135.341 21.9334 135.641 22.222 135.941C22.7413 136.506 23.2606 137.06 23.78 137.603C24.0916 137.914 24.3917 138.238 24.7033 138.549C25.2342 139.08 25.765 139.599 26.3075 140.119C26.6191 140.419 26.9191 140.707 27.2423 141.007C27.8424 141.561 28.4541 142.115 29.0773 142.658C29.3312 142.889 29.5851 143.119 29.8505 143.339C30.7276 144.1 31.6163 144.839 32.528 145.554C32.6665 145.658 32.805 145.762 32.9435 145.878C33.7168 146.489 34.5015 147.089 35.2979 147.678C35.6095 147.909 35.9326 148.14 36.2558 148.37C36.879 148.821 37.5137 149.271 38.16 149.709C38.5178 149.952 38.8871 150.194 39.2564 150.436C39.8796 150.852 40.5028 151.256 41.1376 151.648C41.5069 151.879 41.8762 152.11 42.2455 152.341C42.9149 152.756 43.5958 153.148 44.2882 153.552C44.6114 153.749 44.9461 153.933 45.2692 154.129C46.2271 154.672 47.1966 155.203 48.1776 155.711C48.2353 155.734 48.2814 155.768 48.3391 155.803C49.3778 156.345 50.428 156.853 51.4783 157.361C51.813 157.522 52.1592 157.672 52.4939 157.823C53.1517 158.123 53.8211 158.423 54.4789 158.723C56.0023 159.392 57.5488 160.027 59.1068 160.615C59.4069 160.731 59.707 160.835 60.007 160.939C61.3573 161.446 62.7307 161.92 64.1041 162.37C64.4618 162.485 64.8311 162.612 65.1889 162.727C66.7931 163.235 68.3973 163.697 70.0246 164.124C70.3477 164.205 70.6593 164.285 70.9825 164.366C72.3905 164.724 73.81 165.059 75.2411 165.359C75.645 165.44 76.049 165.532 76.4529 165.613C77.33 165.786 78.2187 165.947 79.1073 166.109C79.5805 166.19 80.0421 166.282 80.5153 166.363C81.6809 166.547 82.8466 166.721 84.0122 166.871C84.2084 166.894 84.4046 166.928 84.6123 166.951C85.9857 167.125 87.3591 167.275 88.744 167.39C89.1595 167.425 89.575 167.448 89.9904 167.482C90.9599 167.563 91.9293 167.632 92.9103 167.678C93.522 167.713 94.1336 167.725 94.7453 167.748C95.4378 167.771 96.1302 167.805 96.8342 167.817C97.4574 167.817 98.0922 167.817 98.7154 167.817C99.4079 167.817 100.112 167.817 100.804 167.817C101.439 167.817 102.062 167.782 102.697 167.759C103.389 167.736 104.082 167.713 104.774 167.678C105.409 167.644 106.044 167.598 106.679 167.563C107.371 167.517 108.064 167.471 108.756 167.413C109.472 167.355 110.187 167.275 110.903 167.205C111.434 167.148 111.964 167.101 112.484 167.032C113.245 166.94 114.007 166.836 114.78 166.732C115.277 166.663 115.773 166.605 116.269 166.524C117.112 166.397 117.954 166.247 118.797 166.109C119.212 166.04 119.628 165.97 120.032 165.901C121.289 165.67 122.536 165.416 123.794 165.139C124.717 164.932 125.629 164.701 126.552 164.482C127.406 164.274 128.249 164.055 129.103 163.824C129.703 163.662 130.303 163.489 130.903 163.316C131.757 163.074 132.611 162.808 133.454 162.543C134.042 162.358 134.619 162.173 135.208 161.989C136.085 161.7 136.962 161.389 137.839 161.077C138.382 160.881 138.924 160.696 139.466 160.488C140.459 160.119 141.44 159.715 142.421 159.323C142.848 159.15 143.287 158.988 143.714 158.803C143.967 158.7 144.21 158.584 144.452 158.48C145.399 158.076 146.333 157.661 147.268 157.222C147.649 157.049 148.03 156.865 148.411 156.68C149.253 156.276 150.084 155.861 150.915 155.445C151.273 155.26 151.619 155.087 151.977 154.903C153.131 154.303 154.285 153.679 155.428 153.033L159.479 169.317C158.336 169.964 157.182 170.587 156.028 171.187C155.682 171.372 155.324 171.545 154.978 171.729C154.147 172.156 153.304 172.572 152.462 172.964C152.081 173.149 151.7 173.322 151.319 173.507C150.384 173.945 149.449 174.361 148.503 174.765C148.249 174.868 148.007 174.984 147.764 175.088C147.695 175.122 147.626 175.145 147.557 175.18C147.199 175.33 146.83 175.469 146.472 175.607C145.491 176.011 144.51 176.403 143.517 176.773C142.975 176.981 142.433 177.165 141.902 177.35C141.025 177.661 140.147 177.973 139.259 178.273C138.682 178.469 138.093 178.642 137.505 178.827C136.65 179.092 135.808 179.358 134.954 179.6C134.354 179.773 133.754 179.935 133.154 180.097C132.3 180.327 131.457 180.547 130.603 180.754C130.268 180.835 129.934 180.939 129.587 181.02C129.01 181.158 128.433 181.285 127.856 181.412C126.61 181.689 125.352 181.943 124.094 182.174C123.678 182.255 123.263 182.312 122.847 182.382C122.005 182.532 121.174 182.67 120.332 182.797C119.835 182.878 119.328 182.936 118.831 183.005C118.07 183.109 117.308 183.213 116.546 183.305C116.015 183.363 115.484 183.42 114.953 183.478C114.457 183.536 113.949 183.593 113.453 183.64C113.245 183.663 113.026 183.663 112.818 183.686C112.126 183.743 111.434 183.79 110.741 183.836C110.106 183.882 109.472 183.928 108.837 183.951C108.144 183.986 107.452 184.009 106.759 184.032C106.125 184.055 105.49 184.078 104.867 184.09C104.174 184.09 103.47 184.09 102.778 184.09C102.155 184.09 101.52 184.09 100.897 184.09C100.193 184.078 99.5002 184.055 98.8077 184.02C98.3345 184.009 97.8613 183.997 97.3882 183.974C97.2497 183.974 97.1112 183.951 96.9727 183.951C96.0033 183.905 95.0338 183.824 94.0644 183.755C93.6489 183.72 93.2219 183.697 92.8064 183.663C91.433 183.536 90.0481 183.397 88.6863 183.224C88.4786 183.201 88.2708 183.166 88.0515 183.132C86.8974 182.982 85.7318 182.809 84.5893 182.624C84.1161 182.543 83.6429 182.451 83.1697 182.37C82.2811 182.209 81.404 182.059 80.5268 181.874C80.3653 181.839 80.1921 181.816 80.0306 181.782C79.7882 181.735 79.5574 181.666 79.3266 181.62C77.8955 181.32 76.476 180.985 75.068 180.627C74.7448 180.547 74.4332 180.477 74.1101 180.385C72.4828 179.958 70.8671 179.485 69.2744 178.989C68.9051 178.873 68.5473 178.746 68.1896 178.631C66.8162 178.181 65.4428 177.708 64.0925 177.2C63.7925 177.084 63.4924 176.98 63.2039 176.877C61.6458 176.277 60.0994 175.642 58.576 174.984C58.449 174.926 58.3105 174.88 58.172 174.822C57.6296 174.58 57.1102 174.326 56.5678 174.084C56.2331 173.934 55.8984 173.784 55.5638 173.622C54.502 173.114 53.4518 172.606 52.4246 172.064C52.3785 172.041 52.3208 172.006 52.2746 171.983C51.2936 171.475 50.3126 170.945 49.3547 170.391C49.02 170.206 48.6969 170.01 48.3622 169.814C47.6813 169.421 47.0004 169.017 46.331 168.602C45.9617 168.371 45.5924 168.14 45.2231 167.909C44.5883 167.517 43.9651 167.113 43.3419 166.698C42.9726 166.455 42.6148 166.213 42.2455 165.959C41.6108 165.52 40.976 165.07 40.3412 164.62C40.0181 164.389 39.695 164.158 39.3833 163.928C38.587 163.339 37.8022 162.739 37.0175 162.116C36.879 162.012 36.752 161.908 36.6135 161.804C35.7018 161.077 34.8131 160.338 33.936 159.577C33.6821 159.357 33.4282 159.127 33.1628 158.896C32.5511 158.353 31.9279 157.799 31.3278 157.245C31.0162 156.957 30.7045 156.657 30.4045 156.368C29.8621 155.849 29.3312 155.33 28.8003 154.799C28.4887 154.487 28.1771 154.176 27.877 153.852C27.3461 153.31 26.8268 152.744 26.319 152.191C26.042 151.89 25.7535 151.579 25.4765 151.279C24.8879 150.609 24.2993 149.94 23.7338 149.259C23.5492 149.04 23.3645 148.832 23.1914 148.624C22.4528 147.724 21.7257 146.801 21.0102 145.866C20.837 145.635 20.6755 145.404 20.5023 145.162C20.0753 144.585 19.6483 144.008 19.2329 143.431C19.0597 143.177 18.8751 142.923 18.702 142.681C18.0557 141.734 17.4325 140.788 16.8208 139.83C16.6708 139.588 16.5207 139.345 16.3707 139.103C15.7821 138.157 15.2051 137.199 14.6626 136.241L14.6396 136.206C14.0856 135.237 13.5662 134.256 13.0584 133.263C12.9315 133.009 12.8045 132.767 12.6776 132.513C12.1929 131.555 11.7312 130.586 11.2927 129.616C11.2811 129.593 11.2696 129.559 11.258 129.536C10.808 128.543 10.3925 127.539 9.977 126.523C9.87313 126.27 9.76927 126.016 9.67694 125.762C9.57308 125.496 9.4692 125.242 9.36533 124.977C9.08835 124.25 8.82291 123.523 8.56901 122.796C8.56901 122.773 8.54593 122.738 8.53438 122.715L8.46514 122.75Z" fill="url(#paint2_linear_12_191)"/>
<path d="M49.8279 0L59.1299 13.4914C19.1521 36.1578 6.12234 82.8756 30.0929 117.625C49.1008 145.185 85.7318 157.072 120.02 149.525C128.976 147.551 137.782 144.25 146.068 139.553L155.381 153.045C145.318 158.746 134.631 162.762 123.748 165.151C82.1195 174.315 37.6522 159.877 14.5819 126.431C-14.5129 84.2374 1.29823 27.5252 49.8395 0H49.8279Z" fill="url(#paint3_linear_12_191)"/>
<defs>
<radialGradient id="paint0_radial_12_191" cx="0" cy="0" r="1" gradientUnits="userSpaceOnUse" gradientTransform="translate(81.7109 184.374) rotate(37.84) scale(78.2015 34.9114)">
<stop stop-color="#98969C"/>
<stop offset="0.14" stop-color="#9D9BA1" stop-opacity="0.95"/>
<stop offset="0.34" stop-color="#ADACB1" stop-opacity="0.81"/>
<stop offset="0.58" stop-color="#C8C7CA" stop-opacity="0.58"/>
<stop offset="0.86" stop-color="#ECECED" stop-opacity="0.26"/>
<stop offset="0.98" stop-color="white" stop-opacity="0.1"/>
</radialGradient>
<linearGradient id="paint1_linear_12_191" x1="157.205" y1="-86.7071" x2="-44.2309" y2="164.828" gradientUnits="userSpaceOnUse">
<stop stop-color="#F4EEF7"/>
<stop offset="0.28" stop-color="#ECEAF3"/>
<stop offset="0.54" stop-color="#E0E4EE"/>
<stop offset="1" stop-color="#BCC1CB"/>
</linearGradient>
<linearGradient id="paint2_linear_12_191" x1="275.269" y1="-3.8893" x2="2.94857" y2="189.906" gradientUnits="userSpaceOnUse">
<stop stop-color="#F4EEF7"/>
<stop offset="0.23" stop-color="#ECEAF3"/>
<stop offset="0.44" stop-color="#E0E4EE"/>
<stop offset="0.62" stop-color="#D9DEE8"/>
<stop offset="0.86" stop-color="#C8CDD7"/>
<stop offset="1" stop-color="#BCC1CB"/>
</linearGradient>
<linearGradient id="paint3_linear_12_191" x1="81.9579" y1="-73.5851" x2="69.159" y2="493.422" gradientUnits="userSpaceOnUse">
<stop stop-color="#F4EEF7"/>
<stop offset="0.28" stop-color="#ECEAF3"/>
<stop offset="0.54" stop-color="#E0E4EE"/>
<stop offset="1" stop-color="#BCC1CB"/>
</linearGradient>
</defs>
</svg>
