<svg width="245" height="421" viewBox="0 0 245 421" fill="none" xmlns="http://www.w3.org/2000/svg">
<path opacity="0.56" d="M10.8946 387.947C8.66722 382.962 14.1261 375.691 23.0703 371.698C32.0146 367.704 41.0742 368.501 43.3016 373.486C45.529 378.472 40.0702 385.743 31.1259 389.736C22.1817 393.729 13.122 392.933 10.8946 387.947Z" fill="url(#paint0_radial_12_142)"/>
<path d="M37.8774 406.205L55.085 398.623C58.051 397.319 60.0822 394.168 60.867 389.54C60.9939 388.79 61.0863 388.028 61.144 387.232C61.167 386.966 61.167 386.689 61.1786 386.424C61.2017 385.893 61.2247 385.351 61.2247 384.797C61.2247 384.739 61.2247 384.693 61.2247 384.635C61.2247 384.3 61.1901 383.943 61.167 383.608C61.1439 383.181 61.1439 382.766 61.0978 382.339C61.0978 382.281 61.0978 382.223 61.0978 382.154C61.0401 381.484 60.9593 380.815 60.867 380.134C60.867 380.1 60.867 380.076 60.8554 380.042C60.8439 379.95 60.8208 379.857 60.8093 379.753C60.74 379.28 60.6708 378.807 60.5784 378.322C60.5323 378.103 60.4861 377.872 60.44 377.653C60.4053 377.48 60.3707 377.307 60.3361 377.122C60.3015 376.96 60.2784 376.799 60.2322 376.637C60.1168 376.106 59.9783 375.576 59.8398 375.033C59.8167 374.952 59.7937 374.883 59.7821 374.802C59.7475 374.687 59.7129 374.571 59.6898 374.456C59.5975 374.121 59.5051 373.798 59.4128 373.464C59.2743 372.99 59.1243 372.517 58.9627 372.032C58.9627 372.009 58.9512 371.975 58.9396 371.952V371.917C58.755 371.398 58.5819 370.89 58.3857 370.371C58.2472 369.99 58.1087 369.609 57.9586 369.24C57.9009 369.101 57.8548 368.963 57.7971 368.824C57.5893 368.316 57.3816 367.808 57.1623 367.312C57.1161 367.208 57.0585 367.104 57.0123 366.989C56.943 366.839 56.8738 366.689 56.8045 366.539C56.6891 366.285 56.5737 366.031 56.4583 365.777C56.2852 365.419 56.1121 365.073 55.939 364.727C55.8813 364.612 55.8236 364.485 55.7659 364.369C55.7428 364.323 55.7197 364.265 55.6851 364.219C55.3965 363.665 55.108 363.123 54.808 362.592C54.7618 362.523 54.7272 362.453 54.681 362.384C54.5656 362.176 54.4387 361.98 54.3232 361.784C54.1386 361.472 53.9539 361.149 53.7577 360.838C53.677 360.711 53.5846 360.584 53.5038 360.457C53.2846 360.111 53.0653 359.776 52.846 359.441C52.696 359.222 52.5575 358.991 52.4074 358.772C52.3497 358.68 52.2805 358.599 52.2113 358.518C51.588 357.629 50.9418 356.764 50.2724 355.944C50.2493 355.91 50.2147 355.875 50.1916 355.84C49.9031 355.483 49.603 355.16 49.3029 354.825C49.1414 354.64 48.9798 354.444 48.8182 354.271C48.3104 353.717 47.8026 353.186 47.2833 352.69C46.6831 352.113 46.0715 351.57 45.4598 351.074C45.4252 351.051 45.4021 351.016 45.3675 350.993C44.8943 350.612 44.4211 350.255 43.9595 349.932C43.8325 349.839 43.7171 349.77 43.5902 349.689C43.3363 349.516 43.0939 349.343 42.84 349.193C42.7246 349.124 42.6092 349.066 42.4938 348.997C42.2283 348.835 41.9629 348.697 41.6859 348.547C41.5243 348.454 41.3512 348.35 41.1896 348.27C41.0396 348.2 40.9011 348.143 40.7626 348.085C40.5895 348.004 40.4049 347.923 40.2317 347.854C40.1048 347.808 39.9894 347.739 39.8624 347.693C39.5739 347.589 39.2969 347.496 39.02 347.416C38.9392 347.393 38.8584 347.358 38.7776 347.335C38.7545 347.335 38.7199 347.312 38.6968 347.312C38.339 347.208 37.9928 347.127 37.635 347.069C37.5427 347.058 37.4504 347.046 37.3581 347.035C37.2542 347.023 37.1503 347.012 37.058 346.989C36.9195 346.977 36.7925 346.942 36.6541 346.931C36.3425 346.908 36.0308 346.896 35.7192 346.896H35.6846C35.6846 346.896 35.6269 346.896 35.6038 346.896C35.3384 346.896 35.0845 346.919 34.8306 346.942C34.6113 346.965 34.392 347 34.1727 347.046C34.1035 347.058 34.0343 347.069 33.9535 347.092C33.8381 347.116 33.7342 347.162 33.6188 347.185C33.4803 347.219 33.3418 347.254 33.2148 347.3C33.1802 347.3 33.1456 347.312 33.111 347.323C32.9032 347.393 32.684 347.473 32.4878 347.566L15.2802 355.148C15.511 355.044 15.7534 354.952 16.0073 354.883C16.1458 354.836 16.2843 354.802 16.4112 354.767C16.5959 354.721 16.769 354.663 16.9536 354.629C17.4153 354.536 17.9 354.49 18.3847 354.479C18.4078 354.479 18.4424 354.479 18.4655 354.479C18.9156 354.479 19.3772 354.513 19.8389 354.571C19.9428 354.583 20.0351 354.594 20.139 354.617C20.6006 354.686 21.0738 354.79 21.5585 354.929C21.6393 354.952 21.7201 354.986 21.7893 355.01C22.1932 355.136 22.5972 355.287 23.0011 355.448C23.1742 355.517 23.3589 355.598 23.532 355.679C23.8436 355.817 24.1437 355.979 24.4553 356.141C24.7207 356.279 24.9861 356.429 25.2631 356.591C25.6324 356.81 25.9902 357.041 26.3595 357.283C26.4865 357.364 26.6019 357.445 26.7288 357.525C27.2251 357.883 27.7329 358.264 28.2292 358.668C28.8408 359.164 29.441 359.707 30.0526 360.284C30.572 360.78 31.0798 361.311 31.5876 361.865C31.7492 362.05 31.9107 362.246 32.0838 362.43C32.407 362.8 32.7301 363.169 33.0417 363.55C33.7111 364.369 34.3574 365.235 34.9806 366.123C35.1884 366.424 35.4076 366.735 35.6038 367.047C35.8231 367.381 36.0539 367.716 36.2617 368.062C36.5387 368.501 36.8041 368.939 37.0695 369.39C37.1849 369.597 37.3119 369.794 37.4273 370.001C37.7966 370.659 38.1544 371.317 38.5122 371.998C38.5699 372.113 38.6275 372.24 38.6968 372.356C38.9969 372.944 39.2854 373.544 39.5624 374.156C39.6316 374.306 39.7009 374.456 39.7701 374.606C40.0933 375.345 40.4164 376.095 40.7165 376.845C41.0742 377.757 41.3974 378.657 41.6974 379.557C41.6974 379.58 41.7205 379.615 41.7205 379.638C41.986 380.446 42.2283 381.254 42.4476 382.05C42.4822 382.165 42.5168 382.281 42.5399 382.396C42.7477 383.169 42.9323 383.943 43.0939 384.704C43.1285 384.878 43.1632 385.051 43.1978 385.224C43.3363 385.928 43.4632 386.632 43.5671 387.324C43.5786 387.417 43.6017 387.509 43.6132 387.601C43.7287 388.374 43.8094 389.136 43.8672 389.886C43.9018 390.313 43.9133 390.729 43.9364 391.156C43.9595 391.548 43.9826 391.952 43.9826 392.345C43.9826 392.898 43.9595 393.429 43.9364 393.96C43.9249 394.237 43.9364 394.514 43.9018 394.78C43.8441 395.564 43.7517 396.338 43.6248 397.088C43.3247 398.819 42.8631 400.342 42.2283 401.647C41.8129 402.512 41.3166 403.274 40.7626 403.943C40.2087 404.601 39.5855 405.155 38.9045 405.594C38.5583 405.813 38.2121 406.009 37.8428 406.171L37.8774 406.205Z" fill="url(#paint1_linear_12_142)"/>
<path d="M37.4619 420.597C37.4619 420.597 37.4965 420.597 37.5081 420.597C37.9582 420.631 38.3968 420.654 38.8353 420.654C38.8469 420.654 38.8699 420.654 38.8815 420.654C39.3316 420.654 39.7701 420.62 40.2087 420.574H40.2433C40.3818 420.562 40.5087 420.527 40.6357 420.504C40.9242 420.458 41.2012 420.424 41.4897 420.366C41.5128 420.366 41.5359 420.366 41.559 420.366C41.6975 420.331 41.836 420.285 41.9744 420.25C42.2284 420.181 42.4822 420.124 42.7246 420.043C42.7592 420.043 42.7938 420.031 42.8169 420.02C43.1401 419.904 43.4632 419.789 43.7748 419.65L60.9824 412.068C60.6362 412.218 60.2899 412.345 59.9322 412.472C59.6898 412.553 59.4359 412.61 59.182 412.68C59.0204 412.726 58.8588 412.772 58.6973 412.807C58.4203 412.864 58.1433 412.91 57.8548 412.945C57.7048 412.968 57.5663 413.003 57.4162 413.014C56.9777 413.06 56.5391 413.084 56.089 413.095C56.0775 413.095 56.0544 413.095 56.0429 413.095C55.6043 413.095 55.1657 413.084 54.7157 413.037C54.5772 413.026 54.4387 413.003 54.3002 412.98C53.9539 412.945 53.6193 412.899 53.273 412.841C53.1115 412.807 52.9383 412.772 52.7652 412.737C52.419 412.668 52.0843 412.587 51.7265 412.495C51.5419 412.449 51.3572 412.391 51.1726 412.333C50.8033 412.218 50.4224 412.091 50.0416 411.953C49.8569 411.883 49.6723 411.814 49.4876 411.745C48.8875 411.514 48.2874 411.249 47.6757 410.948H47.6526L47.6064 410.914C47.1679 410.695 46.7178 410.452 46.2677 410.198C46.1177 410.118 45.9676 410.025 45.8176 409.933C45.5291 409.76 45.2405 409.587 44.9405 409.402C44.4442 409.09 43.9479 408.756 43.4517 408.398C43.3594 408.329 43.2555 408.271 43.1632 408.202C42.5746 407.775 41.9744 407.313 41.3858 406.828C41.0742 406.574 40.7511 406.297 40.4395 406.02C40.2779 405.882 40.1163 405.744 39.9432 405.605C39.447 405.166 38.9622 404.716 38.466 404.243C37.6697 403.481 36.8849 402.674 36.1116 401.831C35.8577 401.554 35.6154 401.254 35.3615 400.966C34.8421 400.377 34.3228 399.788 33.8265 399.177C33.665 398.969 33.5034 398.761 33.3418 398.553C32.8109 397.884 32.2916 397.215 31.7838 396.511C31.576 396.222 31.3683 395.934 31.1606 395.645C30.7566 395.08 30.3758 394.503 29.9834 393.914C29.6487 393.406 29.314 392.898 28.9793 392.379C28.5523 391.71 28.1484 391.029 27.7445 390.336C27.5598 390.025 27.3751 389.725 27.202 389.425C26.6365 388.432 26.0825 387.416 25.5517 386.378C25.4593 386.193 25.367 385.997 25.2747 385.812C24.8246 384.912 24.386 383.989 23.959 383.066C23.8552 382.835 23.7513 382.604 23.6474 382.373C23.1396 381.242 22.6664 380.1 22.2048 378.945C21.6739 377.595 21.1892 376.233 20.7391 374.883C20.716 374.802 20.6814 374.71 20.6583 374.629C20.2659 373.417 19.9081 372.206 19.5735 371.005C19.5273 370.855 19.4811 370.705 19.4465 370.555C19.1349 369.366 18.8579 368.189 18.604 367.012C18.5463 366.735 18.4886 366.447 18.4309 366.17C18.2116 365.096 18.027 364.035 17.8654 362.973C17.8423 362.823 17.8077 362.661 17.7846 362.511C17.6115 361.311 17.4845 360.134 17.3922 358.968C17.3345 358.264 17.323 357.595 17.2884 356.902C17.2653 356.302 17.2191 355.679 17.2076 355.09C17.2076 354.963 17.2076 354.848 17.2076 354.721C17.2076 353.601 17.2422 352.505 17.323 351.455C17.323 351.386 17.3345 351.316 17.346 351.236C17.4384 350.128 17.5653 349.054 17.7385 348.027C18.9503 340.976 22.0432 336.152 26.5673 334.167L9.35971 341.749C4.83566 343.746 1.74269 348.57 0.530891 355.61C0.357777 356.648 0.230831 357.722 0.138503 358.818C0.138503 358.887 0.126958 358.956 0.115417 359.037C0.0346299 360.099 0 361.195 0 362.315C0 362.442 0 362.557 0 362.684C0 362.777 0 362.869 0 362.961C0 363.469 0.0577132 363.988 0.0807951 364.496C0.115418 365.177 0.126955 365.858 0.184659 366.562C0.184659 366.643 0.184671 366.724 0.196212 366.804C0.288539 367.843 0.403946 368.905 0.553978 369.967C0.553978 370.013 0.565507 370.059 0.577048 370.105C0.600129 370.255 0.634761 370.417 0.657843 370.578C0.773252 371.317 0.877118 372.044 1.01561 372.794C1.07331 373.117 1.1541 373.44 1.2118 373.775C1.26951 374.052 1.32722 374.341 1.38493 374.618C1.44263 374.883 1.4888 375.148 1.5465 375.414C1.73116 376.233 1.93888 377.064 2.14662 377.895C2.1697 377.976 2.1928 378.068 2.21588 378.149C2.26204 378.299 2.30819 378.449 2.34281 378.611C2.49284 379.165 2.64288 379.719 2.81599 380.284C3.01219 380.93 3.21993 381.577 3.42766 382.235C3.45075 382.315 3.48538 382.408 3.50846 382.489C3.52 382.535 3.53154 382.569 3.54308 382.615C3.79698 383.377 4.06243 384.139 4.33941 384.901C4.54715 385.455 4.75488 385.997 4.96261 386.551C5.0434 386.759 5.12419 386.978 5.21651 387.186C5.52812 387.959 5.85126 388.732 6.18595 389.494C6.2552 389.655 6.33599 389.805 6.40523 389.967C6.5091 390.198 6.61297 390.429 6.71684 390.659C6.88996 391.052 7.06306 391.444 7.24772 391.825C7.50162 392.356 7.76707 392.875 8.03251 393.406C8.12484 393.591 8.21717 393.776 8.3095 393.96C8.35566 394.041 8.39029 394.122 8.43645 394.203C8.87501 395.045 9.31355 395.876 9.77519 396.684C9.83289 396.788 9.90214 396.892 9.95985 396.995C10.133 397.307 10.3176 397.607 10.5023 397.907C10.7908 398.392 11.0678 398.888 11.3678 399.373C11.4948 399.569 11.6217 399.754 11.7487 399.961C12.0718 400.481 12.4181 400.989 12.7528 401.496C12.972 401.831 13.1913 402.189 13.4221 402.512C13.5837 402.754 13.7684 402.985 13.9299 403.216C14.1377 403.505 14.3454 403.793 14.5531 404.082C15.0609 404.774 15.5803 405.455 16.1112 406.124C16.2727 406.332 16.4343 406.551 16.6074 406.748C16.6651 406.817 16.7228 406.898 16.7806 406.967C17.2306 407.509 17.6807 408.017 18.1424 408.525C18.3963 408.813 18.6386 409.113 18.8925 409.39C19.6658 410.233 20.4506 411.041 21.2469 411.803C21.7432 412.276 22.2279 412.726 22.7241 413.164C22.8857 413.314 23.0588 413.441 23.2204 413.591C23.4858 413.822 23.7628 414.065 24.0283 414.284C24.0744 414.318 24.1206 414.353 24.1668 414.388C24.7669 414.872 25.3555 415.334 25.9556 415.761C26.0479 415.83 26.1403 415.888 26.2326 415.957C26.7289 416.315 27.2366 416.65 27.7329 416.961C27.8021 417.007 27.8714 417.065 27.9522 417.1C28.1715 417.238 28.3907 417.365 28.61 417.492C28.7601 417.585 28.9101 417.677 29.0601 417.758C29.5102 418.012 29.9603 418.254 30.3989 418.473L30.445 418.496H30.4681C31.0798 418.808 31.6799 419.062 32.28 419.304C32.3493 419.339 32.4301 419.373 32.4993 419.396C32.6147 419.443 32.7186 419.466 32.834 419.512C33.2149 419.65 33.5842 419.777 33.965 419.893C34.0804 419.927 34.1959 419.973 34.3113 420.008C34.3805 420.031 34.4498 420.043 34.5305 420.054C34.8768 420.147 35.223 420.227 35.5577 420.297C35.6846 420.32 35.8231 420.366 35.9501 420.389C35.9847 420.389 36.0308 420.389 36.0655 420.401C36.4117 420.458 36.7464 420.504 37.0811 420.539C37.208 420.551 37.335 420.585 37.4619 420.585V420.597Z" fill="url(#paint2_linear_12_142)"/>
<path d="M69.8458 398.196C71.3346 389.54 69.7073 378.264 65.391 367.266C61.4786 357.283 55.7082 348.304 49.1183 341.968C42.1591 335.263 35.0729 332.204 29.1409 333.347C23.2088 334.478 19.1695 339.695 17.7384 348.016C16.2496 356.671 17.8769 367.947 22.1932 378.945C26.1056 388.928 31.8761 397.907 38.466 404.232C52.8344 418.069 66.9144 415.369 69.8573 398.207L69.8458 398.196ZM40.2894 393.498C35.9847 389.355 32.1992 383.458 29.6371 376.926C26.7634 369.609 25.7363 362.407 26.7173 356.66C27.6521 351.212 30.3065 347.796 34.1843 347.046C38.0736 346.296 42.7246 348.316 47.2833 352.701C51.588 356.844 55.3735 362.742 57.9356 369.274C60.8093 376.591 61.8364 383.793 60.8554 389.54C59.9206 394.987 57.2662 398.392 53.3884 399.142C49.4991 399.892 44.8481 397.884 40.2894 393.498Z" fill="url(#paint3_linear_12_142)"/>
<path d="M229.4 37.7436L227.011 19.0934C226.595 15.885 224.16 13.0344 219.948 10.9686C219.267 10.6339 218.551 10.3339 217.812 10.0453C217.57 9.953 217.305 9.87221 217.051 9.79143C216.543 9.61831 216.035 9.43366 215.504 9.28363C215.458 9.27209 215.4 9.24901 215.354 9.23747C215.031 9.14514 214.685 9.07589 214.35 8.99511C213.946 8.89124 213.542 8.78737 213.115 8.69504C213.058 8.6835 213 8.66042 212.942 8.64887C212.284 8.51038 211.627 8.39498 210.946 8.29111C210.911 8.29111 210.888 8.29111 210.853 8.29111C210.761 8.27957 210.657 8.26803 210.565 8.25649C210.092 8.18724 209.618 8.12953 209.134 8.07183C208.903 8.04874 208.672 8.03721 208.453 8.01413C208.28 8.00259 208.095 7.9795 207.922 7.96796C207.76 7.95642 207.599 7.93334 207.437 7.9218C206.895 7.88717 206.341 7.86409 205.787 7.84101C205.706 7.84101 205.625 7.84101 205.556 7.84101C205.441 7.84101 205.314 7.84101 205.198 7.84101C204.852 7.84101 204.517 7.82947 204.171 7.82947C203.675 7.82947 203.179 7.82946 202.682 7.85255C202.659 7.85255 202.625 7.85255 202.601 7.85255H202.567C202.024 7.87563 201.482 7.89871 200.928 7.93333C200.524 7.95641 200.12 7.99104 199.716 8.02566C199.566 8.0372 199.416 8.04874 199.278 8.06028C198.735 8.10645 198.193 8.17569 197.65 8.2334C197.535 8.24494 197.42 8.26802 197.304 8.27956C197.143 8.30265 196.981 8.32573 196.819 8.34881C196.543 8.38343 196.266 8.41806 196 8.46422C195.608 8.52193 195.227 8.59117 194.846 8.66042C194.719 8.6835 194.581 8.70658 194.454 8.72966C194.396 8.72966 194.338 8.75274 194.28 8.76428C193.669 8.87969 193.069 9.00664 192.469 9.14514C192.388 9.16822 192.307 9.1913 192.226 9.20284C191.995 9.26055 191.776 9.31825 191.545 9.37595C191.188 9.46828 190.83 9.54907 190.472 9.6414C190.322 9.67602 190.183 9.73373 190.033 9.76835C189.641 9.88376 189.26 9.99917 188.868 10.1146C188.614 10.1954 188.36 10.2646 188.106 10.3454C188.002 10.38 187.91 10.4262 187.806 10.4608C186.767 10.807 185.763 11.1763 184.782 11.5918C184.736 11.6034 184.701 11.6264 184.655 11.638C184.24 11.8111 183.836 12.0073 183.432 12.1919C183.213 12.2958 182.982 12.3881 182.763 12.5036C182.093 12.8267 181.435 13.1729 180.812 13.5307C180.085 13.9462 179.393 14.3732 178.746 14.8117C178.712 14.8348 178.677 14.8579 178.642 14.881C178.146 15.2272 177.673 15.5735 177.223 15.9312C177.108 16.0235 176.992 16.1159 176.888 16.2082C176.657 16.4044 176.415 16.589 176.196 16.7852C176.092 16.8776 176.011 16.9699 175.907 17.0622C175.676 17.27 175.457 17.4892 175.249 17.7085C175.123 17.847 174.972 17.974 174.846 18.1009C174.742 18.2163 174.649 18.3433 174.545 18.4587C174.418 18.6087 174.292 18.7587 174.176 18.8972C174.095 19.0011 173.991 19.105 173.922 19.2088C173.738 19.4512 173.576 19.6936 173.414 19.9359C173.368 20.0052 173.311 20.0744 173.276 20.1437C173.264 20.1667 173.241 20.1898 173.23 20.2129C173.034 20.5245 172.849 20.8361 172.699 21.1593C172.653 21.2401 172.63 21.3324 172.583 21.4132C172.537 21.5055 172.503 21.5978 172.457 21.6901C172.399 21.8171 172.341 21.9325 172.283 22.0595C172.168 22.348 172.064 22.648 171.983 22.9366V22.9712C171.983 22.9712 171.96 23.0289 171.96 23.052C171.891 23.3059 171.833 23.5598 171.787 23.8137C171.753 24.033 171.718 24.2522 171.695 24.4715C171.695 24.5408 171.683 24.6216 171.672 24.6908C171.672 24.8062 171.672 24.9216 171.672 25.037C171.672 25.1755 171.672 25.314 171.672 25.4525C171.672 25.4871 171.672 25.5217 171.672 25.5564C171.672 25.7756 171.695 26.0065 171.729 26.2257L174.118 44.8759C174.084 44.622 174.072 44.3681 174.061 44.1027C174.061 43.9642 174.061 43.8257 174.061 43.6757C174.061 43.491 174.061 43.3064 174.084 43.1102C174.13 42.637 174.222 42.1638 174.349 41.7022C174.349 41.6791 174.349 41.6445 174.372 41.6214C174.499 41.1944 174.661 40.7558 174.846 40.3288C174.892 40.2365 174.926 40.1441 174.972 40.0518C175.18 39.6248 175.399 39.1978 175.676 38.7823C175.723 38.7131 175.769 38.6438 175.815 38.5746C176.046 38.2283 176.311 37.8821 176.588 37.5359C176.704 37.3859 176.831 37.2358 176.957 37.0973C177.177 36.8434 177.419 36.5895 177.662 36.3356C177.869 36.1163 178.089 35.9086 178.319 35.6893C178.631 35.4008 178.954 35.1123 179.289 34.8353C179.404 34.743 179.508 34.6506 179.635 34.5468C180.12 34.1659 180.628 33.7966 181.158 33.4273C181.805 32.9887 182.497 32.5617 183.224 32.1463C183.847 31.7885 184.505 31.4538 185.175 31.1191C185.394 31.0152 185.636 30.9114 185.856 30.8075C186.294 30.5998 186.744 30.392 187.194 30.2074C188.164 29.8034 189.179 29.4226 190.218 29.0764C190.564 28.961 190.922 28.8455 191.28 28.7301C191.661 28.6147 192.042 28.4993 192.434 28.3839C192.93 28.2454 193.438 28.1069 193.946 27.98C194.177 27.9223 194.396 27.8646 194.627 27.8069C195.354 27.6337 196.092 27.4837 196.843 27.3337C196.97 27.3106 197.108 27.2875 197.235 27.2644C197.893 27.149 198.551 27.0452 199.208 26.9528C199.37 26.9298 199.532 26.9067 199.705 26.8836C200.501 26.7797 201.309 26.6874 202.117 26.6181C203.086 26.5373 204.056 26.4797 205.002 26.445C205.037 26.445 205.06 26.445 205.094 26.445C205.948 26.4219 206.791 26.4219 207.622 26.445C207.737 26.445 207.864 26.445 207.98 26.445C208.787 26.4681 209.572 26.5143 210.357 26.572C210.53 26.5835 210.715 26.6066 210.888 26.6181C211.603 26.6874 212.319 26.7566 213.011 26.8605C213.104 26.872 213.196 26.8836 213.3 26.8951C214.073 27.0105 214.823 27.149 215.562 27.299C215.989 27.3914 216.381 27.4953 216.797 27.5991C217.178 27.6915 217.582 27.7838 217.951 27.8876C218.482 28.0377 218.978 28.2108 219.486 28.3955C219.74 28.4878 220.017 28.557 220.259 28.6609C220.998 28.9379 221.713 29.2495 222.394 29.5842C223.975 30.3574 225.303 31.2461 226.364 32.2155C227.08 32.8618 227.668 33.5543 228.142 34.2698C228.615 34.9853 228.973 35.747 229.203 36.5203C229.319 36.9127 229.4 37.3051 229.457 37.709L229.4 37.7436Z" fill="url(#paint4_linear_12_142)"/>
<path d="M243.087 42.2215C243.087 42.2215 243.087 42.1868 243.099 42.1753C243.26 41.7598 243.41 41.3328 243.526 40.9173C243.526 40.9058 243.537 40.8827 243.537 40.8712C243.664 40.4326 243.757 40.0056 243.837 39.5786V39.544C243.872 39.4055 243.872 39.2785 243.895 39.1516C243.941 38.863 243.976 38.5861 243.999 38.2975C243.999 38.2744 243.999 38.2514 243.999 38.2283C243.999 38.0783 243.999 37.9398 243.999 37.7897C243.999 37.5358 244.022 37.2704 244.01 37.0165C244.01 36.9819 244.01 36.9472 244.01 36.9126C243.999 36.5664 243.964 36.2317 243.93 35.8855L241.541 17.2353C241.587 17.6046 241.61 17.9855 241.621 18.3548C241.621 18.6087 241.621 18.8741 241.61 19.128C241.61 19.2896 241.61 19.4627 241.598 19.6243C241.575 19.9013 241.529 20.1898 241.495 20.4668C241.471 20.6168 241.46 20.7553 241.437 20.9053C241.356 21.3323 241.264 21.7709 241.137 22.1979C241.137 22.2094 241.125 22.2325 241.125 22.2441C240.998 22.6596 240.86 23.0866 240.698 23.502C240.652 23.629 240.583 23.7559 240.525 23.8829C240.387 24.1945 240.26 24.5176 240.098 24.8292C240.017 24.9793 239.936 25.1293 239.856 25.2793C239.694 25.5909 239.521 25.891 239.325 26.2026C239.221 26.3642 239.117 26.5258 239.013 26.6873C238.794 27.0105 238.575 27.3452 238.332 27.6683C238.217 27.8299 238.101 27.9799 237.975 28.1415C237.582 28.6493 237.155 29.1571 236.693 29.6534L236.67 29.6764L236.636 29.7111C236.301 30.0688 235.943 30.4381 235.574 30.7959C235.447 30.9113 235.32 31.0383 235.193 31.1537C234.951 31.3845 234.697 31.6153 234.431 31.8461C233.993 32.227 233.531 32.6078 233.047 32.9887C232.954 33.0579 232.873 33.1387 232.77 33.208C232.193 33.6581 231.581 34.0966 230.946 34.5236C230.611 34.7545 230.254 34.9853 229.907 35.2046C229.723 35.32 229.55 35.4354 229.365 35.5623C228.811 35.9086 228.234 36.2548 227.634 36.5895C226.676 37.1319 225.672 37.6628 224.645 38.159C224.31 38.3206 223.952 38.4707 223.606 38.6322C222.902 38.9669 222.187 39.2901 221.448 39.6017C221.206 39.7055 220.952 39.7979 220.709 39.8902C219.924 40.2018 219.128 40.5134 218.309 40.8019C217.974 40.9173 217.639 41.0443 217.305 41.1597C216.647 41.379 215.977 41.5867 215.32 41.7944C214.743 41.9791 214.154 42.1522 213.565 42.3138C212.804 42.5331 212.03 42.7293 211.257 42.9255C210.911 43.0062 210.576 43.0986 210.219 43.1794C209.099 43.4448 207.968 43.6756 206.837 43.8949C206.629 43.9295 206.422 43.9641 206.214 43.9988C205.221 44.1719 204.217 44.3334 203.213 44.4835C202.959 44.5181 202.717 44.5527 202.463 44.5874C201.24 44.7489 200.005 44.8874 198.77 44.9913C197.327 45.1182 195.885 45.199 194.454 45.2452C194.361 45.2452 194.28 45.2452 194.188 45.2452C192.919 45.2798 191.649 45.2798 190.403 45.2452C190.241 45.2452 190.091 45.2452 189.93 45.2452C188.695 45.2106 187.494 45.1413 186.294 45.049C186.006 45.0259 185.717 45.0028 185.44 44.9797C184.355 44.8759 183.27 44.7605 182.22 44.6104C182.07 44.5873 181.909 44.5758 181.747 44.5527C180.547 44.3796 179.381 44.1603 178.239 43.9295C177.546 43.791 176.9 43.6064 176.23 43.4448C175.642 43.2948 175.042 43.1678 174.476 43.0062C174.361 42.9716 174.245 42.937 174.118 42.9024C173.045 42.5908 172.006 42.2445 171.014 41.8637C170.945 41.8406 170.887 41.806 170.818 41.7829C169.791 41.379 168.787 40.952 167.852 40.4903C161.435 37.3281 157.696 32.9887 157.061 28.0838L159.45 46.734C160.073 51.6389 163.824 55.9783 170.241 59.1405C171.187 59.6021 172.18 60.0291 173.207 60.4331C173.276 60.4562 173.334 60.4908 173.403 60.5139C174.395 60.8947 175.434 61.241 176.507 61.5526C176.623 61.5872 176.738 61.6218 176.865 61.6564C176.958 61.6795 177.038 61.7141 177.131 61.7372C177.615 61.8757 178.135 61.9796 178.631 62.095C179.3 62.2566 179.947 62.4412 180.639 62.5797C180.72 62.5912 180.789 62.6259 180.87 62.6374C181.897 62.8451 182.936 63.0298 184.009 63.1914C184.055 63.1914 184.101 63.1914 184.148 63.2145C184.298 63.2375 184.459 63.2491 184.621 63.2721C185.359 63.376 186.098 63.4799 186.848 63.5491C187.171 63.5838 187.506 63.6068 187.841 63.6299C188.129 63.653 188.418 63.6761 188.706 63.6992C188.983 63.7223 189.249 63.7453 189.514 63.7684C190.357 63.8261 191.211 63.8607 192.065 63.8954C192.157 63.8954 192.249 63.8954 192.33 63.8954C192.492 63.8954 192.653 63.8954 192.803 63.8954C193.38 63.9069 193.957 63.9185 194.534 63.9185C195.215 63.9185 195.896 63.9069 196.577 63.8838C196.669 63.8838 196.75 63.8838 196.843 63.8838C196.889 63.8838 196.923 63.8838 196.97 63.8838C197.777 63.8608 198.585 63.8146 199.393 63.7684C199.982 63.7338 200.57 63.6876 201.159 63.6415C201.39 63.6184 201.609 63.6068 201.84 63.5838C202.671 63.503 203.502 63.4107 204.333 63.3068C204.506 63.2837 204.679 63.2606 204.852 63.2375C205.106 63.2029 205.348 63.1683 205.602 63.1337C206.029 63.076 206.456 63.0182 206.872 62.949C207.449 62.8567 208.026 62.7528 208.603 62.6489C208.811 62.6143 209.018 62.5797 209.214 62.5451C209.307 62.5335 209.399 62.5104 209.491 62.4989C210.415 62.3258 211.338 62.1296 212.25 61.9219C212.365 61.8988 212.481 61.8642 212.608 61.8295C212.954 61.7487 213.288 61.6564 213.635 61.5756C214.189 61.4372 214.743 61.3102 215.285 61.1602C215.516 61.1025 215.724 61.0217 215.954 60.964C216.543 60.8024 217.132 60.6177 217.709 60.4446C218.089 60.3292 218.493 60.2253 218.874 60.0984C219.151 60.0061 219.428 59.9022 219.694 59.8099C220.028 59.6945 220.363 59.579 220.698 59.4521C221.506 59.1636 222.313 58.852 223.098 58.5404C223.341 58.4365 223.594 58.3442 223.837 58.2518C223.929 58.2172 224.01 58.1826 224.102 58.148C224.749 57.871 225.36 57.5825 225.983 57.2939C226.33 57.1324 226.687 56.9823 227.022 56.8208C228.049 56.3245 229.042 55.7936 230.011 55.2512C230.611 54.9165 231.177 54.5703 231.742 54.224C231.927 54.1086 232.1 53.9817 232.285 53.8663C232.585 53.6701 232.885 53.4854 233.174 53.2892C233.22 53.2546 233.266 53.22 233.312 53.1854C233.947 52.7468 234.558 52.3082 235.135 51.8581C235.228 51.7889 235.309 51.7197 235.401 51.6504C235.886 51.2696 236.347 50.8887 236.786 50.4963C236.843 50.4386 236.924 50.3925 236.982 50.3348C237.178 50.1616 237.351 49.9885 237.548 49.8154C237.674 49.7 237.801 49.5731 237.928 49.4576C238.298 49.0999 238.655 48.7421 238.99 48.3728C238.99 48.3612 239.013 48.3497 239.025 48.3382V48.3151C239.498 47.8188 239.913 47.311 240.317 46.8032C240.364 46.7455 240.421 46.6763 240.479 46.6186C240.548 46.5262 240.606 46.4339 240.675 46.33C240.917 46.0069 241.137 45.6837 241.356 45.3491C241.425 45.2452 241.506 45.1529 241.564 45.049C241.598 44.9797 241.633 44.922 241.679 44.8528C241.864 44.5527 242.037 44.2411 242.199 43.9295C242.256 43.8141 242.337 43.6987 242.395 43.5833C242.418 43.5487 242.429 43.514 242.441 43.4794C242.602 43.1678 242.729 42.8562 242.868 42.5446C242.914 42.4292 242.983 42.3138 243.029 42.1984L243.087 42.2215Z" fill="url(#paint5_linear_12_142)"/>
<path d="M230.808 4.80579C222.937 0.928025 211.661 -0.722327 199.889 0.293277C189.202 1.21655 178.966 4.19412 171.002 8.70663C162.601 13.473 157.649 19.4051 157.061 25.4179C156.461 31.4308 160.315 36.7858 167.886 40.5135C175.757 44.3913 187.033 46.0416 198.804 45.026C209.491 44.1027 219.728 41.1252 227.668 36.6127C245.026 26.7682 246.422 12.4921 230.808 4.80579ZM217.905 31.8001C212.7 34.743 205.983 36.7165 198.989 37.3167C191.153 37.986 183.963 36.9358 178.723 34.3622C173.761 31.9155 171.245 28.407 171.626 24.4716C172.006 20.5361 175.272 16.6468 180.778 13.5192C185.971 10.5763 192.699 8.6143 199.693 8.00263C207.518 7.33326 214.719 8.38349 219.959 10.9571C224.922 13.4038 227.426 16.9122 227.045 20.8477C226.664 24.7832 223.421 28.6725 217.916 31.8001H217.905Z" fill="url(#paint6_linear_12_142)"/>
<path d="M167.875 40.525C167.875 40.525 168.14 40.6404 168.648 40.8481C169.144 41.079 169.906 41.3444 170.852 41.7022C171.81 42.0369 172.987 42.4062 174.349 42.7755C175.723 43.1217 177.269 43.4795 178.989 43.7795C180.697 44.1027 182.566 44.3335 184.551 44.5181C186.536 44.7028 188.637 44.772 190.795 44.8067C192.965 44.8413 195.204 44.7605 197.477 44.5874C199.739 44.4258 202.059 44.1488 204.333 43.7795C208.903 43.0871 213.427 42.0022 217.524 40.6058C219.567 39.8902 221.529 39.1516 223.352 38.3437C225.176 37.559 226.837 36.6819 228.372 35.8394C231.396 34.1313 233.797 32.4694 235.297 31.1076C236.059 30.4382 236.613 29.8611 236.97 29.4457L237.49 28.7878C237.49 28.7878 237.328 29.0302 237.017 29.4803C236.682 29.9188 236.186 30.5536 235.447 31.2691C233.993 32.7118 231.708 34.5699 228.696 36.3933C227.195 37.2935 225.533 38.2399 223.71 39.0939C221.898 39.971 219.936 40.8135 217.859 41.529C213.715 42.9947 209.145 44.1488 204.517 44.899C202.186 45.2568 199.866 45.4991 197.558 45.6376C195.25 45.7877 192.976 45.8454 190.784 45.7877C186.386 45.6953 182.301 45.1298 178.873 44.4027C177.154 44.0565 175.607 43.5949 174.245 43.1679C172.895 42.7178 171.729 42.2792 170.783 41.8868C169.837 41.4829 169.121 41.1367 168.636 40.8828L167.886 40.5019L167.875 40.525Z" fill="url(#paint7_linear_12_142)"/>
<path d="M37.8774 406.205L55.085 398.623C58.051 397.319 60.0822 394.168 60.867 389.54C60.9939 388.79 61.0863 388.028 61.144 387.232C61.167 386.966 61.167 386.689 61.1786 386.424C61.2017 385.893 61.2247 385.351 61.2247 384.797C61.2247 384.739 61.2247 384.693 61.2247 384.635C61.2247 384.3 61.1901 383.943 61.167 383.608C61.1439 383.181 61.1439 382.766 61.0978 382.339C61.0978 382.281 61.0978 382.223 61.0978 382.154C61.0401 381.484 60.9593 380.815 60.867 380.134C60.867 380.1 60.867 380.076 60.8554 380.042C60.8439 379.95 60.8208 379.857 60.8093 379.753C60.74 379.28 60.6708 378.807 60.5784 378.322C60.5323 378.103 60.4861 377.872 60.44 377.653C60.4053 377.48 60.3707 377.307 60.3361 377.122C60.3015 376.96 60.2784 376.799 60.2322 376.637C60.1168 376.106 59.9783 375.576 59.8398 375.033C59.8167 374.952 59.7937 374.883 59.7821 374.802C59.7475 374.687 59.7129 374.571 59.6898 374.456C59.5975 374.121 59.5051 373.798 59.4128 373.464C59.2743 372.99 59.1243 372.517 58.9627 372.032C58.9627 372.009 58.9512 371.975 58.9396 371.952V371.917C58.755 371.398 58.5819 370.89 58.3857 370.371C58.2472 369.99 58.1087 369.609 57.9586 369.24C57.9009 369.101 57.8548 368.963 57.7971 368.824C57.5893 368.316 57.3816 367.808 57.1623 367.312C57.1161 367.208 57.0585 367.104 57.0123 366.989C56.943 366.839 56.8738 366.689 56.8045 366.539C56.6891 366.285 56.5737 366.031 56.4583 365.777C56.2852 365.419 56.1121 365.073 55.939 364.727C55.8813 364.612 55.8236 364.485 55.7659 364.369C55.7428 364.323 55.7197 364.265 55.6851 364.219C55.3965 363.665 55.108 363.123 54.808 362.592C54.7618 362.523 54.7272 362.453 54.681 362.384C54.5656 362.176 54.4387 361.98 54.3232 361.784C54.1386 361.472 53.9539 361.149 53.7577 360.838C53.677 360.711 53.5846 360.584 53.5038 360.457C53.2846 360.111 53.0653 359.776 52.846 359.441C52.696 359.222 52.5575 358.991 52.4074 358.772C52.3497 358.68 52.2805 358.599 52.2113 358.518C51.588 357.629 50.9418 356.764 50.2724 355.944C50.2493 355.91 50.2147 355.875 50.1916 355.84C49.9031 355.483 49.603 355.16 49.3029 354.825C49.1414 354.64 48.9798 354.444 48.8182 354.271C48.3104 353.717 47.8026 353.186 47.2833 352.69C46.6831 352.113 46.0715 351.57 45.4598 351.074C45.4252 351.051 45.4021 351.016 45.3675 350.993C44.8943 350.612 44.4211 350.255 43.9595 349.932C43.8325 349.839 43.7171 349.77 43.5902 349.689C43.3363 349.516 43.0939 349.343 42.84 349.193C42.7246 349.124 42.6092 349.066 42.4938 348.997C42.2283 348.835 41.9629 348.697 41.6859 348.547C41.5243 348.454 41.3512 348.35 41.1896 348.27C41.0396 348.2 40.9011 348.143 40.7626 348.085C40.5895 348.004 40.4049 347.923 40.2317 347.854C40.1048 347.808 39.9894 347.739 39.8624 347.693C39.5739 347.589 39.2969 347.496 39.02 347.416C38.9392 347.393 38.8584 347.358 38.7776 347.335C38.7545 347.335 38.7199 347.312 38.6968 347.312C38.339 347.208 37.9928 347.127 37.635 347.069C37.5427 347.058 37.4504 347.046 37.3581 347.035C37.2542 347.023 37.1503 347.012 37.058 346.989C36.9195 346.977 36.7925 346.942 36.6541 346.931C36.3425 346.908 36.0308 346.896 35.7192 346.896H35.6846C35.6846 346.896 35.6269 346.896 35.6038 346.896C35.3384 346.896 35.0845 346.919 34.8306 346.942C34.6113 346.965 34.392 347 34.1727 347.046C34.1035 347.058 34.0343 347.069 33.9535 347.092C33.8381 347.116 33.7342 347.162 33.6188 347.185C33.4803 347.219 33.3418 347.254 33.2148 347.3C33.1802 347.3 33.1456 347.312 33.111 347.323C32.9032 347.393 32.684 347.473 32.4878 347.566L15.2802 355.148C15.511 355.044 15.7534 354.952 16.0073 354.883C16.1458 354.836 16.2843 354.802 16.4112 354.767C16.5959 354.721 16.769 354.663 16.9536 354.629C17.4153 354.536 17.9 354.49 18.3847 354.479C18.4078 354.479 18.4424 354.479 18.4655 354.479C18.9156 354.479 19.3772 354.513 19.8389 354.571C19.9428 354.583 20.0351 354.594 20.139 354.617C20.6006 354.686 21.0738 354.79 21.5585 354.929C21.6393 354.952 21.7201 354.986 21.7893 355.01C22.1932 355.136 22.5972 355.287 23.0011 355.448C23.1742 355.517 23.3589 355.598 23.532 355.679C23.8436 355.817 24.1437 355.979 24.4553 356.141C24.7207 356.279 24.9861 356.429 25.2631 356.591C25.6324 356.81 25.9902 357.041 26.3595 357.283C26.4865 357.364 26.6019 357.445 26.7288 357.525C27.2251 357.883 27.7329 358.264 28.2292 358.668C28.8408 359.164 29.441 359.707 30.0526 360.284C30.572 360.78 31.0798 361.311 31.5876 361.865C31.7492 362.05 31.9107 362.246 32.0838 362.43C32.407 362.8 32.7301 363.169 33.0417 363.55C33.7111 364.369 34.3574 365.235 34.9806 366.123C35.1884 366.424 35.4076 366.735 35.6038 367.047C35.8231 367.381 36.0539 367.716 36.2617 368.062C36.5387 368.501 36.8041 368.939 37.0695 369.39C37.1849 369.597 37.3119 369.794 37.4273 370.001C37.7966 370.659 38.1544 371.317 38.5122 371.998C38.5699 372.113 38.6275 372.24 38.6968 372.356C38.9969 372.944 39.2854 373.544 39.5624 374.156C39.6316 374.306 39.7009 374.456 39.7701 374.606C40.0933 375.345 40.4164 376.095 40.7165 376.845C41.0742 377.757 41.3974 378.657 41.6974 379.557C41.6974 379.58 41.7205 379.615 41.7205 379.638C41.986 380.446 42.2283 381.254 42.4476 382.05C42.4822 382.165 42.5168 382.281 42.5399 382.396C42.7477 383.169 42.9323 383.943 43.0939 384.704C43.1285 384.878 43.1632 385.051 43.1978 385.224C43.3363 385.928 43.4632 386.632 43.5671 387.324C43.5786 387.417 43.6017 387.509 43.6132 387.601C43.7287 388.374 43.8094 389.136 43.8672 389.886C43.9018 390.313 43.9133 390.729 43.9364 391.156C43.9595 391.548 43.9826 391.952 43.9826 392.345C43.9826 392.898 43.9595 393.429 43.9364 393.96C43.9249 394.237 43.9364 394.514 43.9018 394.78C43.8441 395.564 43.7517 396.338 43.6248 397.088C43.3247 398.819 42.8631 400.342 42.2283 401.647C41.8129 402.512 41.3166 403.274 40.7626 403.943C40.2087 404.601 39.5855 405.155 38.9045 405.594C38.5583 405.813 38.2121 406.009 37.8428 406.171L37.8774 406.205Z" fill="url(#paint8_linear_12_142)"/>
<path d="M37.4619 420.597C37.4619 420.597 37.4965 420.597 37.5081 420.597C37.9582 420.631 38.3968 420.654 38.8353 420.654C38.8469 420.654 38.8699 420.654 38.8815 420.654C39.3316 420.654 39.7701 420.62 40.2087 420.574H40.2433C40.3818 420.562 40.5087 420.527 40.6357 420.504C40.9242 420.458 41.2012 420.424 41.4897 420.366C41.5128 420.366 41.5359 420.366 41.559 420.366C41.6975 420.331 41.836 420.285 41.9744 420.25C42.2284 420.181 42.4822 420.124 42.7246 420.043C42.7592 420.043 42.7938 420.031 42.8169 420.02C43.1401 419.904 43.4632 419.789 43.7748 419.65L60.9824 412.068C60.6362 412.218 60.2899 412.345 59.9322 412.472C59.6898 412.553 59.4359 412.61 59.182 412.68C59.0204 412.726 58.8588 412.772 58.6973 412.807C58.4203 412.864 58.1433 412.91 57.8548 412.945C57.7048 412.968 57.5663 413.003 57.4162 413.014C56.9777 413.06 56.5391 413.084 56.089 413.095C56.0775 413.095 56.0544 413.095 56.0429 413.095C55.6043 413.095 55.1657 413.084 54.7157 413.037C54.5772 413.026 54.4387 413.003 54.3002 412.98C53.9539 412.945 53.6193 412.899 53.273 412.841C53.1115 412.807 52.9383 412.772 52.7652 412.737C52.419 412.668 52.0843 412.587 51.7265 412.495C51.5419 412.449 51.3572 412.391 51.1726 412.333C50.8033 412.218 50.4224 412.091 50.0416 411.953C49.8569 411.883 49.6723 411.814 49.4876 411.745C48.8875 411.514 48.2874 411.249 47.6757 410.948H47.6526L47.6064 410.914C47.1679 410.695 46.7178 410.452 46.2677 410.198C46.1177 410.118 45.9676 410.025 45.8176 409.933C45.5291 409.76 45.2405 409.587 44.9405 409.402C44.4442 409.09 43.9479 408.756 43.4517 408.398C43.3594 408.329 43.2555 408.271 43.1632 408.202C42.5746 407.775 41.9744 407.313 41.3858 406.828C41.0742 406.574 40.7511 406.297 40.4395 406.02C40.2779 405.882 40.1163 405.744 39.9432 405.605C39.447 405.166 38.9622 404.716 38.466 404.243C37.6697 403.481 36.8849 402.674 36.1116 401.831C35.8577 401.554 35.6154 401.254 35.3615 400.966C34.8421 400.377 34.3228 399.788 33.8265 399.177C33.665 398.969 33.5034 398.761 33.3418 398.553C32.8109 397.884 32.2916 397.215 31.7838 396.511C31.576 396.222 31.3683 395.934 31.1606 395.645C30.7566 395.08 30.3758 394.503 29.9834 393.914C29.6487 393.406 29.314 392.898 28.9793 392.379C28.5523 391.71 28.1484 391.029 27.7445 390.336C27.5598 390.025 27.3751 389.725 27.202 389.425C26.6365 388.432 26.0825 387.416 25.5517 386.378C25.4593 386.193 25.367 385.997 25.2747 385.812C24.8246 384.912 24.386 383.989 23.959 383.066C23.8552 382.835 23.7513 382.604 23.6474 382.373C23.1396 381.242 22.6664 380.1 22.2048 378.945C21.6739 377.595 21.1892 376.233 20.7391 374.883C20.716 374.802 20.6814 374.71 20.6583 374.629C20.2659 373.417 19.9081 372.206 19.5735 371.005C19.5273 370.855 19.4811 370.705 19.4465 370.555C19.1349 369.366 18.8579 368.189 18.604 367.012C18.5463 366.735 18.4886 366.447 18.4309 366.17C18.2116 365.096 18.027 364.035 17.8654 362.973C17.8423 362.823 17.8077 362.661 17.7846 362.511C17.6115 361.311 17.4845 360.134 17.3922 358.968C17.3345 358.264 17.323 357.595 17.2884 356.902C17.2653 356.302 17.2191 355.679 17.2076 355.09C17.2076 354.963 17.2076 354.848 17.2076 354.721C17.2076 353.601 17.2422 352.505 17.323 351.455C17.323 351.386 17.3345 351.316 17.346 351.236C17.4384 350.128 17.5653 349.054 17.7385 348.027C18.9503 340.976 22.0432 336.152 26.5673 334.167L9.35971 341.749C4.83566 343.746 1.74269 348.57 0.530891 355.61C0.357777 356.648 0.230831 357.722 0.138503 358.818C0.138503 358.887 0.126958 358.956 0.115417 359.037C0.0346299 360.099 0 361.195 0 362.315C0 362.442 0 362.557 0 362.684C0 362.777 0 362.869 0 362.961C0 363.469 0.0577132 363.988 0.0807951 364.496C0.115418 365.177 0.126955 365.858 0.184659 366.562C0.184659 366.643 0.184671 366.724 0.196212 366.804C0.288539 367.843 0.403946 368.905 0.553978 369.967C0.553978 370.013 0.565507 370.059 0.577048 370.105C0.600129 370.255 0.634761 370.417 0.657843 370.578C0.773252 371.317 0.877118 372.044 1.01561 372.794C1.07331 373.117 1.1541 373.44 1.2118 373.775C1.26951 374.052 1.32722 374.341 1.38493 374.618C1.44263 374.883 1.4888 375.148 1.5465 375.414C1.73116 376.233 1.93888 377.064 2.14662 377.895C2.1697 377.976 2.1928 378.068 2.21588 378.149C2.26204 378.299 2.30819 378.449 2.34281 378.611C2.49284 379.165 2.64288 379.719 2.81599 380.284C3.01219 380.93 3.21993 381.577 3.42766 382.235C3.45075 382.315 3.48538 382.408 3.50846 382.489C3.52 382.535 3.53154 382.569 3.54308 382.615C3.79698 383.377 4.06243 384.139 4.33941 384.901C4.54715 385.455 4.75488 385.997 4.96261 386.551C5.0434 386.759 5.12419 386.978 5.21651 387.186C5.52812 387.959 5.85126 388.732 6.18595 389.494C6.2552 389.655 6.33599 389.805 6.40523 389.967C6.5091 390.198 6.61297 390.429 6.71684 390.659C6.88996 391.052 7.06306 391.444 7.24772 391.825C7.50162 392.356 7.76707 392.875 8.03251 393.406C8.12484 393.591 8.21717 393.776 8.3095 393.96C8.35566 394.041 8.39029 394.122 8.43645 394.203C8.87501 395.045 9.31355 395.876 9.77519 396.684C9.83289 396.788 9.90214 396.892 9.95985 396.995C10.133 397.307 10.3176 397.607 10.5023 397.907C10.7908 398.392 11.0678 398.888 11.3678 399.373C11.4948 399.569 11.6217 399.754 11.7487 399.961C12.0718 400.481 12.4181 400.989 12.7528 401.496C12.972 401.831 13.1913 402.189 13.4221 402.512C13.5837 402.754 13.7684 402.985 13.9299 403.216C14.1377 403.505 14.3454 403.793 14.5531 404.082C15.0609 404.774 15.5803 405.455 16.1112 406.124C16.2727 406.332 16.4343 406.551 16.6074 406.748C16.6651 406.817 16.7228 406.898 16.7806 406.967C17.2306 407.509 17.6807 408.017 18.1424 408.525C18.3963 408.813 18.6386 409.113 18.8925 409.39C19.6658 410.233 20.4506 411.041 21.2469 411.803C21.7432 412.276 22.2279 412.726 22.7241 413.164C22.8857 413.314 23.0588 413.441 23.2204 413.591C23.4858 413.822 23.7628 414.065 24.0283 414.284C24.0744 414.318 24.1206 414.353 24.1668 414.388C24.7669 414.872 25.3555 415.334 25.9556 415.761C26.0479 415.83 26.1403 415.888 26.2326 415.957C26.7289 416.315 27.2366 416.65 27.7329 416.961C27.8021 417.007 27.8714 417.065 27.9522 417.1C28.1715 417.238 28.3907 417.365 28.61 417.492C28.7601 417.585 28.9101 417.677 29.0601 417.758C29.5102 418.012 29.9603 418.254 30.3989 418.473L30.445 418.496H30.4681C31.0798 418.808 31.6799 419.062 32.28 419.304C32.3493 419.339 32.4301 419.373 32.4993 419.396C32.6147 419.443 32.7186 419.466 32.834 419.512C33.2149 419.65 33.5842 419.777 33.965 419.893C34.0804 419.927 34.1959 419.973 34.3113 420.008C34.3805 420.031 34.4498 420.043 34.5305 420.054C34.8768 420.147 35.223 420.227 35.5577 420.297C35.6846 420.32 35.8231 420.366 35.9501 420.389C35.9847 420.389 36.0308 420.389 36.0655 420.401C36.4117 420.458 36.7464 420.504 37.0811 420.539C37.208 420.551 37.335 420.585 37.4619 420.585V420.597Z" fill="url(#paint9_linear_12_142)"/>
<path d="M69.8458 398.196C71.3346 389.54 69.7073 378.264 65.391 367.266C61.4786 357.283 55.7082 348.304 49.1183 341.968C42.1591 335.263 35.0729 332.204 29.1409 333.347C23.2088 334.478 19.1695 339.695 17.7384 348.016C16.2496 356.671 17.8769 367.947 22.1932 378.945C26.1056 388.928 31.8761 397.907 38.466 404.232C52.8344 418.069 66.9144 415.369 69.8573 398.207L69.8458 398.196ZM40.2894 393.498C35.9847 389.355 32.1992 383.458 29.6371 376.926C26.7634 369.609 25.7363 362.407 26.7173 356.66C27.6521 351.212 30.3065 347.796 34.1843 347.046C38.0736 346.296 42.7246 348.316 47.2833 352.701C51.588 356.844 55.3735 362.742 57.9356 369.274C60.8093 376.591 61.8364 383.793 60.8554 389.54C59.9206 394.987 57.2662 398.392 53.3884 399.142C49.4991 399.892 44.8481 397.884 40.2894 393.498Z" fill="url(#paint10_linear_12_142)"/>
<path d="M17.7384 348.004L17.6692 348.697C17.623 349.147 17.5538 349.816 17.5076 350.659C17.3922 352.344 17.3922 354.756 17.6115 357.629C17.8192 360.503 18.3616 363.838 19.1695 367.347C19.9543 370.855 21.0968 374.537 22.4933 378.114C23.8436 381.727 25.4478 385.212 27.1789 388.374C28.8985 391.537 30.6643 394.41 32.3608 396.753C34.0458 399.096 35.5461 400.989 36.6771 402.247C37.785 403.516 38.4544 404.22 38.4544 404.22L37.9351 403.747C37.6004 403.435 37.0926 402.997 36.504 402.397C35.8923 401.808 35.1883 401.058 34.392 400.181C33.5957 399.304 32.7186 398.288 31.8299 397.134C30.9297 395.991 30.0064 394.699 29.0601 393.325C28.1368 391.929 27.1674 390.452 26.2902 388.848C24.5014 385.674 22.8164 382.131 21.4084 378.518C20.0351 374.871 18.9387 371.121 18.1885 367.555C17.7846 365.777 17.5307 364.023 17.3345 362.361C17.1498 360.699 17.0113 359.118 16.9652 357.664C16.8959 356.21 16.9306 354.871 16.9998 353.682C17.069 352.505 17.1614 351.466 17.2768 350.624C17.3691 349.781 17.5076 349.124 17.5999 348.685C17.6807 348.235 17.7269 348.004 17.7269 348.004H17.7384Z" fill="url(#paint11_linear_12_142)"/>
<defs>
<radialGradient id="paint0_radial_12_142" cx="0" cy="0" r="1" gradientUnits="userSpaceOnUse" gradientTransform="translate(23.1839 380.951) rotate(155.94) scale(17.6018 10.2516)">
<stop stop-color="#98969C"/>
<stop offset="0.43" stop-color="#CAC9CC" stop-opacity="0.56"/>
<stop offset="0.8" stop-color="#F0F0F0" stop-opacity="0.23"/>
<stop offset="0.98" stop-color="white" stop-opacity="0.1"/>
</radialGradient>
<linearGradient id="paint1_linear_12_142" x1="21.7853" y1="338.347" x2="75.3488" y2="438.816" gradientUnits="userSpaceOnUse">
<stop stop-color="#D8D6DE"/>
<stop offset="0.37" stop-color="#E6E4EE"/>
<stop offset="0.96" stop-color="#DFDDE5"/>
<stop offset="1" stop-color="#DFDDE5"/>
</linearGradient>
<linearGradient id="paint2_linear_12_142" x1="32.4777" y1="334.381" x2="29.2663" y2="420.324" gradientUnits="userSpaceOnUse">
<stop stop-color="#D8D6DE"/>
<stop offset="0.37" stop-color="#E6E4EE"/>
<stop offset="0.96" stop-color="#DFDDE5"/>
<stop offset="1" stop-color="#DFDDE5"/>
</linearGradient>
<linearGradient id="paint3_linear_12_142" x1="66.5279" y1="357.77" x2="-53.0776" y2="438.544" gradientUnits="userSpaceOnUse">
<stop stop-color="#F4EEF7"/>
<stop offset="0.28" stop-color="#ECEAF3"/>
<stop offset="0.54" stop-color="#E0E4EE"/>
<stop offset="1" stop-color="#BCC1CB"/>
</linearGradient>
<linearGradient id="paint4_linear_12_142" x1="159.733" y1="33.9011" x2="271.262" y2="11.0852" gradientUnits="userSpaceOnUse">
<stop stop-color="#D8D6DE"/>
<stop offset="0.37" stop-color="#E6E4EE"/>
<stop offset="0.96" stop-color="#DFDDE5"/>
<stop offset="1" stop-color="#DFDDE5"/>
</linearGradient>
<linearGradient id="paint5_linear_12_142" x1="158.963" y1="22.5335" x2="240.455" y2="50.0219" gradientUnits="userSpaceOnUse">
<stop stop-color="#D8D6DE"/>
<stop offset="0.37" stop-color="#E6E4EE"/>
<stop offset="0.96" stop-color="#DFDDE5"/>
<stop offset="1" stop-color="#DFDDE5"/>
</linearGradient>
<linearGradient id="paint6_linear_12_142" x1="191.06" y1="-3.47168" x2="234.526" y2="134.146" gradientUnits="userSpaceOnUse">
<stop stop-color="#F4EEF7"/>
<stop offset="0.28" stop-color="#ECEAF3"/>
<stop offset="0.54" stop-color="#E0E4EE"/>
<stop offset="1" stop-color="#BCC1CB"/>
</linearGradient>
<linearGradient id="paint7_linear_12_142" x1="172.964" y1="-2.59199" x2="282.222" y2="134.364" gradientUnits="userSpaceOnUse">
<stop stop-color="white" stop-opacity="0.1"/>
<stop offset="0.29" stop-color="white" stop-opacity="0.68"/>
<stop offset="0.46" stop-color="white"/>
<stop offset="0.51" stop-color="white" stop-opacity="0.96"/>
<stop offset="0.59" stop-color="white" stop-opacity="0.84"/>
<stop offset="0.69" stop-color="white" stop-opacity="0.66"/>
<stop offset="0.81" stop-color="white" stop-opacity="0.4"/>
<stop offset="0.95" stop-color="white" stop-opacity="0.08"/>
<stop offset="0.98" stop-color="white" stop-opacity="0"/>
</linearGradient>
<linearGradient id="paint8_linear_12_142" x1="21.7853" y1="338.347" x2="75.3488" y2="438.816" gradientUnits="userSpaceOnUse">
<stop stop-color="#D8D6DE"/>
<stop offset="0.37" stop-color="#E6E4EE"/>
<stop offset="0.96" stop-color="#DFDDE5"/>
<stop offset="1" stop-color="#DFDDE5"/>
</linearGradient>
<linearGradient id="paint9_linear_12_142" x1="32.4777" y1="334.381" x2="29.2663" y2="420.324" gradientUnits="userSpaceOnUse">
<stop stop-color="#D8D6DE"/>
<stop offset="0.37" stop-color="#E6E4EE"/>
<stop offset="0.96" stop-color="#DFDDE5"/>
<stop offset="1" stop-color="#DFDDE5"/>
</linearGradient>
<linearGradient id="paint10_linear_12_142" x1="66.5279" y1="357.77" x2="-53.0776" y2="438.544" gradientUnits="userSpaceOnUse">
<stop stop-color="#F4EEF7"/>
<stop offset="0.28" stop-color="#ECEAF3"/>
<stop offset="0.54" stop-color="#E0E4EE"/>
<stop offset="1" stop-color="#BCC1CB"/>
</linearGradient>
<linearGradient id="paint11_linear_12_142" x1="25.4016" y1="324.553" x2="31.9453" y2="484.199" gradientUnits="userSpaceOnUse">
<stop stop-color="white" stop-opacity="0.1"/>
<stop offset="0.29" stop-color="white" stop-opacity="0.68"/>
<stop offset="0.46" stop-color="white"/>
<stop offset="0.51" stop-color="white" stop-opacity="0.96"/>
<stop offset="0.59" stop-color="white" stop-opacity="0.84"/>
<stop offset="0.69" stop-color="white" stop-opacity="0.66"/>
<stop offset="0.81" stop-color="white" stop-opacity="0.4"/>
<stop offset="0.95" stop-color="white" stop-opacity="0.08"/>
<stop offset="0.98" stop-color="white" stop-opacity="0"/>
</linearGradient>
</defs>
</svg>
