<svg width="567" height="335" viewBox="0 0 567 335" fill="none" xmlns="http://www.w3.org/2000/svg">
<path style="mix-blend-mode:overlay" opacity="0.92" d="M481.685 334.408C528.75 334.408 566.904 299.355 566.904 256.115C566.904 212.874 528.75 177.821 481.685 177.821C434.62 177.821 396.467 212.874 396.467 256.115C396.467 299.355 434.62 334.408 481.685 334.408Z" fill="url(#paint0_radial_12_224)"/>
<path style="mix-blend-mode:soft-light" opacity="0.92" d="M105.983 106.945C125.494 87.4344 125.494 55.801 105.983 36.2901C86.4719 16.7792 54.8385 16.7792 35.3276 36.2901C15.8167 55.801 15.8167 87.4344 35.3276 106.945C54.8385 126.456 86.4719 126.456 105.983 106.945Z" fill="url(#paint1_radial_12_224)"/>
<defs>
<radialGradient id="paint0_radial_12_224" cx="0" cy="0" r="1" gradientUnits="userSpaceOnUse" gradientTransform="translate(481.265 258.038) scale(85.1563 78.7467)">
<stop stop-color="white"/>
<stop offset="0.15" stop-color="white" stop-opacity="0.77"/>
<stop offset="0.33" stop-color="white" stop-opacity="0.5"/>
<stop offset="0.5" stop-color="white" stop-opacity="0.28"/>
<stop offset="0.65" stop-color="white" stop-opacity="0.13"/>
<stop offset="0.76" stop-color="white" stop-opacity="0.03"/>
<stop offset="0.83" stop-color="white" stop-opacity="0"/>
</radialGradient>
<radialGradient id="paint1_radial_12_224" cx="0" cy="0" r="1" gradientUnits="userSpaceOnUse" gradientTransform="translate(70.6621 71.6122) scale(49.9608)">
<stop stop-color="white"/>
<stop offset="0.15" stop-color="white" stop-opacity="0.77"/>
<stop offset="0.33" stop-color="white" stop-opacity="0.5"/>
<stop offset="0.5" stop-color="white" stop-opacity="0.28"/>
<stop offset="0.65" stop-color="white" stop-opacity="0.13"/>
<stop offset="0.76" stop-color="white" stop-opacity="0.03"/>
<stop offset="0.83" stop-color="white" stop-opacity="0"/>
</radialGradient>
</defs>
</svg>
